/* XPM */
static char *_2b4ebbbafae49c189f165d3e8024d5a[] = {
/* columns rows colors chars-per-pixel */
"50 50 228 2 ",
"   c #040404",
".  c #080707",
"X  c #030C0D",
"o  c #0D0C0B",
"O  c #100E0E",
"+  c #07110E",
"@  c #12100F",
"#  c #030E13",
"$  c #070E18",
"%  c #120F10",
"&  c #041214",
"*  c #0D1315",
"=  c #081917",
"-  c #03151B",
";  c #0D161B",
":  c #021A1E",
">  c #0C1A1D",
",  c #131313",
"<  c #151818",
"1  c #151A1B",
"2  c #1A1A1C",
"3  c #23201F",
"4  c #021D22",
"5  c #0C1B21",
"6  c #051B29",
"7  c #161D20",
"8  c #032125",
"9  c #0D2226",
"0  c #03232A",
"q  c #0A252B",
"w  c #032B2E",
"e  c #0B282D",
"r  c #182226",
"t  c #072736",
"y  c #032C32",
"u  c #0B2B33",
"i  c #062D39",
"p  c #182C36",
"a  c #03343A",
"s  c #0A343B",
"d  c #02393D",
"f  c #13363C",
"g  c #242324",
"h  c #282627",
"j  c #2C2C2B",
"k  c #31312F",
"l  c #2E3134",
"z  c #343434",
"x  c #36323C",
"c  c #38363A",
"v  c #3D3C3D",
"b  c #403F3E",
"n  c #41403F",
"m  c #033641",
"M  c #023C44",
"N  c #023F49",
"B  c #083948",
"V  c #173B42",
"C  c #2E3A4A",
"Z  c #3A3945",
"A  c #423F40",
"S  c #024147",
"D  c #02424B",
"F  c #08464B",
"G  c #09454C",
"H  c #0B484E",
"J  c #13444C",
"K  c #044551",
"L  c #054A53",
"P  c #0B4A53",
"I  c #034758",
"U  c #074E5B",
"Y  c #094D59",
"T  c #124B54",
"R  c #184C59",
"E  c #05515D",
"W  c #0C515C",
"Q  c #1A545C",
"!  c #244954",
"~  c #354853",
"^  c #24535D",
"/  c #38535C",
"(  c #084D62",
")  c #144A64",
"_  c #065362",
"`  c #0B5969",
"'  c #145663",
"]  c #115C6C",
"[  c #2A5866",
"{  c #335167",
"}  c #345A69",
"|  c #186367",
" . c #26606B",
".. c #39646E",
"X. c #386B78",
"o. c #3D757C",
"O. c #454343",
"+. c #494849",
"@. c #4B4B4C",
"#. c #524D4C",
"$. c #4D4E51",
"%. c #524C55",
"&. c #554E59",
"*. c #4E5659",
"=. c #535253",
"-. c #55545B",
";. c #5A545D",
":. c #54585A",
">. c #5D5B5B",
",. c #61585A",
"<. c #485C68",
"1. c #595360",
"2. c #585461",
"3. c #615F61",
"4. c #4A656C",
"5. c #546669",
"6. c #476875",
"7. c #566D75",
"8. c #46757C",
"9. c #4C757D",
"0. c #54737C",
"q. c #656364",
"w. c #696365",
"e. c #6A6768",
"r. c #6C6A6B",
"t. c #6F7172",
"y. c #7A7878",
"u. c #907C7E",
"i. c #356E82",
"p. c #3B7B83",
"a. c #467984",
"s. c #557A88",
"d. c #647D8B",
"f. c #777D84",
"g. c #548890",
"h. c #7A858B",
"j. c #678694",
"k. c #6D8C95",
"l. c #779499",
"z. c #6A9AA6",
"x. c #7593A4",
"c. c #6FA3AD",
"v. c #6FA8AE",
"b. c #71A6AF",
"n. c #70A8AD",
"m. c #73A7B1",
"M. c #848485",
"N. c #8B8B8C",
"B. c #918C90",
"V. c #8A9598",
"C. c #939493",
"Z. c #94999B",
"A. c #9B9D9C",
"S. c #A79E9C",
"D. c #9FA09F",
"F. c #A2A19D",
"G. c #889BA5",
"H. c #989DA1",
"J. c #89A6A9",
"K. c #9DA2A4",
"L. c #9AA6AB",
"P. c #93AAB4",
"I. c #8CB1BA",
"U. c #9AB3B6",
"Y. c #A3A3A4",
"T. c #A9A7A8",
"R. c #ABABAC",
"E. c #B1AEAE",
"W. c #B2B1AE",
"Q. c #ACAEB1",
"!. c #AAB4B6",
"~. c #B3B3B3",
"^. c #B9B6B5",
"/. c #B6B8B8",
"(. c #BBBCBB",
"). c #C1BEBD",
"_. c #D7BFBF",
"`. c #C2C2BE",
"'. c #92B7C1",
"]. c #93BAC3",
"[. c #A6BEC5",
"{. c #9CC2CB",
"}. c #BAC5C8",
"|. c #B7CBCB",
" X c #C3C3C2",
".X c #C9C6C4",
"XX c #CBC9C6",
"oX c #C6C9C8",
"OX c #CCCCCB",
"+X c #D0CECC",
"@X c #CFD1CF",
"#X c #CACED5",
"$X c #C9D3D4",
"%X c #CCD5DA",
"&X c #CED9DC",
"*X c #D4D4D4",
"=X c #D9D6D6",
"-X c #D9D9D7",
";X c #D3D6DA",
":X c #D9D5DA",
">X c #D3DADB",
",X c #DDDCDD",
"<X c #E3DCDB",
"1X c #DDE2DF",
"2X c #E1E0DE",
"3X c #EAE5DD",
"4X c #CEDAE1",
"5X c #D3DBE1",
"6X c #DBDDE1",
"7X c #E1DFE1",
"8X c #CFE1E0",
"9X c #D3E2E6",
"0X c #DCE2E3",
"qX c #D3E5EA",
"wX c #E4E3E3",
"eX c #EAE6E6",
"rX c #E6E8E7",
"tX c #E9E9E7",
"yX c #E5E7E9",
"uX c #E9E7E8",
"iX c #E6EBEB",
"pX c #EAE9E8",
"aX c #EAEBEC",
"sX c #F2EFEC",
"dX c #F2F1ED",
"fX c #FAF6F3",
"gX c #FDFBF6",
"hX c #FFFEFB",
/* pixels */
"    . . o O o o o o o o o o o o o o o o o o o o o o o o o o o o o o o o o o o o o o . . X X . . .   ",
"  . o g c O.@.$.=.=.>.>.>.3.q.q.q.w.w.w.w.e.e.e.r.r.r.r.r.r.r.r.r.r.r.r.e.e.w.q.q.3.>.:.*.$.+.z < . ",
". O j K.OX-X<XwXwXwXwXwXwXwXwXwXwXwXwXwX7X6X,X,X,X,X,X,X,X,X,X,X,X,X,X6X6X7X7X6X,X,X,X,X-XR.T.K.=.o ",
"o g f.*XwXpXdXdXsXdXdXsXaXaXaXaXpXpXpXpXpXpXpXpXpXtXtXtXtXpXtXrXtXtXtXpXpXpXpXpXpXpXpXaXpX-X(./.5.O ",
"h N.}. X.XOXOX+X+X+XOXOXOXOXOXOXOXOXOXOXOXOXOXOXOXOXOXOXOXOXOXOXOXOXOXOXOXOXOXOXOX@X*X*X=X2X-X$Xd., ",
"y.`.XXt.#.#.@.@.+.+.+.+.O.O.O.O.O.O.O.O.O.O.O.O.O.O.O.O.O.O.O.O.O.O.O.O.O.O.O.O.O.O.+.+.q.OX1X$Xk.< ",
"W.=X=X>.< , * * * * , * * ; ; ; ; ; ; ; ; ; ; ; ; ; ; 5 5 5 5 > > > ; ; ; * * * * * < < @.OX0X%Xl.9 ",
".X,X,X>., * & 5 9 q q q q q q q q q q q q q q q q q q e u u u e e e e u e e q q q q u p <.$XyX4Xx.e ",
"@XwX,X;.% X : y a a a a a a a a a a a a a a a a a a a a a a a a a a a a a a a d a a s V 5.$XyX9Xz.u ",
"=XwX,X;.% X 4 a M M M M S D D D D D D D S D D D D D D D D D D D M M M M D D D D M M S F 0.%XiX9Xz.u ",
"=XwX6X;.@ X 4 d M D D D D D D D D D D D D D H P P T P P P P P G D M M N D D D D D D D H 0.&XiXqXz.t ",
",XwX,X;.@ & 8 d D D D D D D D D D D D D D P ^ 6.6.7.6.4.<.} / ! f i s m M D D D D D D P 0.&XiXqXz.i ",
",XwX6X;., & 8 d D D H H H H L L L H H H T Q k.#X#XXXQ.T.T.H.C.M.C - 4 y m M N D D D D P 9.4XaXqXz.i ",
",XwX6X;.@ X 8 M D H T T T T R Q Q [ [ ....s.oX,XOX X~.~.R.R.Y.C./ 9 ; & 0 M N D D D D P 9.4XaXqXc.i ",
"<XwX6X;.@ X 0 M W X.x.G.P.P.U.U.[.|.|.|.|.%X*X X/.~.~.Q.Q.R.T.Z...a e & & t m M D D D P 9.4XaXqXc.i ",
"7XwX6X2.@ X 8 F Q z.9XwXrXyXyXyXwX0X0X0X,X-X X(./.~.R.Q.Q.R.T.H.X.S s 4 # - s M D D D P 9.5XaXqXb.i ",
"7XwX6X1.O X 8 D ' l.2XeXpXpXtXeXwXwXwXwXwX,X(.~.~.R.R.R.R.R.T.H.X.K B 6 # # w M D D K P 9.5XaXqXm.i ",
"7XwX6X1.O X 8 M T 5.C.S.T.R.~.~.~./.(.}. X X~.~.Q.R.R.R.R.R.T.H.o.I B t - # 8 M D D D P 9.5XaXqXm.i ",
"wXwX6X1.O X 4 M F f r g g g h h j k z v v @.N.T.T.R.R.R.R.R.Y.Z.o.E G t - & : m D D D Y 8.>XaXqXm.u ",
"wXwX6X1.O X 4 d M y > , o o o o o , , , , g y.T.T.T.T.T.T.Y.Y.Z.a._ I i 4 - - a D D D Y 8.>XiXqXm.i ",
"wXwX6X1.O X 4 d M i 5 ; & & & ; < < 2 h z @.M.A.Z.K.K.K.K.K.H.V.s.` _ B 6 5 - y N D D P 8.&XaXqXm.i ",
"wXwX6X;.@ X 4 M D m i y y y u f l :.N.T.F.D.A.Z.h.7.6.6.s.d.j.l.h.0.X.) B t - : t B F L 8.&XaXqXm.i ",
"wXwX6X1.@ X 4 M D M M M M S J / V.oX=X`.R.T.T.T.K.d.[ R T R ^ [ 7.B.B.s.| d 4 & # q B L 8.%XaXqXm.i ",
"7XwX6X1., + 4 m D N M S D T ..P.>X,X+X/.R.R.T.T.Y.G.j.X.[ R T Y ^ 7.7.o.| D 6 $ X > f L a.%XaXqXm.i ",
"wXwX6X1., + 4 m D D N D T 6.!.*X=XoX(.~.R.R.T.T.T.Y.A.G.l.j.0.6.' P L K D M 0 $ X & s L a.&XaXqXm.i ",
"wXwX6X;., + 4 m D D D H X.!.@X+X X(.~.~.R.R.R.R.R.T.T.Y.K.H.A.V...W W P K D t $ X & s D a.&XaXqXb.i ",
"wXwX6X-., & 4 M D D M  .P.oXXX X).^.~.R.R.R.R.R.R.Q.R.R.T.T.Y.A.6.W P P I K i - # & s K o.&XpXqXb.i ",
"wXwX6X-., # 4 M K F ! J./. X.X X X).(.(.(.(.(.(././././.~.R.Y.T.h.6.} [ [ R B 6 - - t B 8.%XyXqXb.u ",
"wXeX6X&., X 4 M L J t.^./.E.R.XX,X2XwXwXwX2X2XwX<X,X,X,X-X*X).(./.!.Q.L.L.G.s.' B w 5 5 4.$XyXqXb.s ",
"wXeX6X&., X 4 M L ! N.^.T.W.XX-XwXwXwXwX2X2X2X2X2X<X,X-X-X*X`.(.(./.~.^.(.(.P.p.W s < < *.#XyXqXn.u ",
"wXuX6X&., X 4 M P ! C.`.XX*X-X-X,X,X-X*X`.~.Y.A.C.N.M.y.y.r.>.=.=.@.@.@.@.=.*.<.<.p < , *.#XyXqXv.u ",
"wXuX6X&.% X 4 M L ! C. XOX=X=X=XOXOX/.t.O.k g 2 2 2 2 2 2 < , , , , , , < 2 z N.T.$.< , *.#XyXqXc.u ",
"wXuX6X%.O X : M H V y.`..X*X-X=XOX(.>.g < , o . . o % , , o . o o , , , , < Z S.S.O.2 , *.*XyXqXc.i ",
"wXuX6X%.o X 4 M G f O.S.`.@X-X-XOXr.g h g 2 , o o , 2 g r < * , h z c Z r r ~ Y.T.Z < * *.*XyXqXc.y ",
"wXuX6X%.o X : m M s 9 A S..X@X@XM.g 3 #.N.y.v , , O.N.A.C.O.2 g N.(./.G.! V <.T.T.v < * :.*XyXqXc.y ",
"wXuX6X%.o X : m M s q 7 #.^.XXT.v g k C..X`.t.7 g +.(.OX`.+.h c T.@XoXP.^ R } T.S.z < > 5.*XyXqXc.y ",
"wXeX6X%.o X : d M d u e 7 w.).t.j v r.~.`. XA.$.=.t.~..X^.w.$.2.V./.(.!.6.[ ..Y.u.g 7 q 7.=XyXqXz.y ",
"wXeX6X%.o X 4 M M M M a w r #.,.M.D.W.~.^.~.R.Y.Y.T.~.~.~.T.Y.Y.Y.Q.~.Q.L.V.d.f.z * 8 a 9.-XpXqXz.y ",
"wXeX6X%.o X 4 M D D M M a e r >.T.R.T.~.~.~.E.T.T.R.~.~.~.R.T.R.Q.~./.~.W.R.N.v < : y D a.-XpXqXz.y ",
"wXtX6X%.o X 4 M D D D M M y 8 z N.F.F.Y.Y.Y.Y.Y.Y.Y.Y.Y.Y.K.H.A.A.A.D.A.A.C.>.< = 0 m K g.:XuXqXz.y ",
"wXuX6X%.o X 4 M D D D D M d y 5 r z v O.O.O.O.n n n n b v v v c c z z k k h < > y m N I s.-XuX9Xz.y ",
",XuX7X&.* # 0 N D D D D D M d u > * , O O % , @ @ @ @ , , , , , , , , , < , > m K D K U g.:XuX9Xz.y ",
"=XeXwX,.2 > u B H L L L P P H B q ; * o o o O O O O O @ O , , , , , < < < < s ( ( U W _ g.6XeX9Xg.y ",
" XtXpXy.l C C { { [ } } } } } } { C C Z x x x x x x x x c c Z Z Z Z Z Z ~ / } i.i.X.i.a.G.wXeX8Xg.w ",
"Y.wXsX2X;X;X%X&X5X5X5X5X5X5X4X4X5X5X5X:X:X-X-X-X-X=X=X-X-X-X,X,X,X,X6X6X6X0X9X9X9X0X0X6X0X3X<X|.g.0 ",
"w.*XrXfXgXhXhXhXhXhXhXhXhXhXhXhXhXhXhXhXhXhXhXhXhXhXhXhXhXhXhXhXgXgXgXgXgXgXgXgXgXfXdXsXeX<X_.U.p.4 ",
"h t.x.].{.{.{.{.].].].].].].].].].].].].].].].].].].].].].].].].].].].].].].].'.I.I.P.J.x.j.s.p.' & ",
"o * u ) ' ] ] ] ] ] ] ] ] ] ] ] ] ] ] ] ] ] ] ] ] ] ] ] ] ] ] ] ] ] ] ] ] ] ] ] ] ] ] ` _ E _ E a X ",
". . + s Y ( _ _ _ _ _ _ E E E E U Y U Y Y Y Y Y Y P P Y Y Y Y Y Y Y Y Y U U E E _ _ _ _ _ _ ` W q . ",
"    . + 8 0 w w w w w w w w w w w w w w w w w w w w w w w w w w y y y y y y y y w w w 0 0 0 8 - X   "
};
