/* XPM */
static char *feea6890687a44c1b51c15a44fb3092c[] = {
/* columns rows colors chars-per-pixel */
"50 48 209 2 ",
"   c #010001",
".  c #0A0506",
"X  c #070608",
"o  c #080709",
"O  c #0C0B0B",
"+  c #1C0D04",
"@  c #150708",
"#  c #110D0E",
"$  c #1A1009",
"%  c #120F11",
"&  c #131213",
"*  c #1A1313",
"=  c #1D1B1C",
"-  c #260A05",
";  c #3E0303",
":  c #370E00",
">  c #390804",
",  c #271508",
"<  c #3A120E",
"1  c #291511",
"2  c #201F1F",
"3  c #3B220D",
"4  c #20201E",
"5  c #3C231C",
"6  c #1D1F20",
"7  c #201F20",
"8  c #242425",
"9  c #2A2727",
"0  c #2E2B27",
"q  c #242729",
"w  c #292729",
"e  c #24282B",
"r  c #2A2A2B",
"t  c #3C2728",
"y  c #312E2D",
"u  c #39302F",
"i  c #2E3335",
"p  c #343333",
"a  c #393636",
"s  c #3A3937",
"d  c #363738",
"f  c #3A3B3B",
"g  c #430202",
"h  c #480706",
"j  c #5D0303",
"k  c #5B0A02",
"l  c #481504",
"z  c #461C01",
"x  c #591507",
"c  c #4B0F11",
"v  c #4C1F1F",
"b  c #571617",
"n  c #640602",
"m  c #6C0503",
"M  c #630802",
"N  c #680802",
"B  c #740301",
"V  c #790500",
"C  c #770E00",
"Z  c #7A0D00",
"A  c #651D03",
"S  c #65110B",
"D  c #6C110D",
"F  c #7B1101",
"G  c #72130E",
"H  c #751B09",
"J  c #6D0F13",
"K  c #6C1313",
"L  c #6F1916",
"P  c #6C1E1B",
"I  c #701212",
"U  c #771A19",
"Y  c #5F201E",
"T  c #642902",
"R  c #782905",
"E  c #6B390C",
"W  c #7C3A03",
"Q  c #793804",
"!  c #66211F",
"~  c #6B281C",
"^  c #712C1B",
"/  c #6C3D10",
"(  c #773215",
")  c #441F21",
"_  c #4F2625",
"`  c #5F2120",
"'  c #4E3522",
"]  c #453936",
"[  c #593832",
"{  c #632523",
"}  c #6A2625",
"|  c #652D26",
" . c #6A2925",
".. c #65262D",
"X. c #662C2D",
"o. c #69292A",
"O. c #732425",
"+. c #702E2A",
"@. c #64322F",
"#. c #6C332F",
"$. c #652A31",
"%. c #762E33",
"&. c #653532",
"*. c #6D3232",
"=. c #623A35",
"-. c #633C38",
";. c #713736",
":. c #7A4414",
">. c #7E431A",
",. c #5F4223",
"<. c #4A423D",
"1. c #554538",
"2. c #6C4927",
"3. c #74482F",
"4. c #7A4C28",
"5. c #7D562D",
"6. c #7C592E",
"7. c #6D4434",
"8. c #6A4739",
"9. c #734930",
"0. c #765434",
"q. c #795536",
"w. c #7E5935",
"e. c #76593B",
"r. c #795839",
"t. c #603E40",
"y. c #444444",
"u. c #4F4847",
"i. c #494748",
"p. c #4C4B4B",
"a. c #5D4441",
"s. c #574844",
"d. c #514E4D",
"f. c #5B4C4C",
"g. c #4D524F",
"h. c #51504F",
"j. c #544E52",
"k. c #545454",
"l. c #5C5554",
"z. c #5A5956",
"x. c #5B5758",
"c. c #53595A",
"v. c #5D5C5C",
"b. c #634544",
"n. c #684747",
"m. c #61454A",
"M. c #634B4C",
"N. c #65524E",
"B. c #6C5F4D",
"V. c #614D52",
"C. c #645553",
"Z. c #695751",
"A. c #655A56",
"S. c #635759",
"D. c #625C5B",
"F. c #5E625F",
"G. c #67624F",
"H. c #6B624F",
"J. c #656253",
"K. c #6C6154",
"L. c #62625E",
"P. c #6E645C",
"I. c #5D5E61",
"U. c #615E61",
"Y. c #5E6363",
"T. c #626362",
"R. c #626666",
"E. c #646865",
"W. c #821400",
"Q. c #831D00",
"!. c #891F01",
"~. c #852201",
"^. c #8A2301",
"/. c #852B01",
"(. c #8D2D01",
"). c #882B09",
"_. c #922501",
"`. c #8D3201",
"'. c #8C3E02",
"]. c #893809",
"[. c #933200",
"{. c #993200",
"}. c #953F00",
"|. c #973F00",
" X c #983D01",
".X c #8D4202",
"XX c #954100",
"oX c #964000",
"OX c #9B4600",
"+X c #954907",
"@X c #9D4900",
"#X c #9D4A00",
"$X c #9E4A00",
"%X c #914309",
"&X c #964A09",
"*X c #964A0D",
"=X c #994A09",
"-X c #8B4D15",
";X c #81421F",
":X c #864C1B",
">X c #8B4E19",
",X c #875019",
"<X c #8B501A",
"1X c #A14700",
"2X c #A04901",
"3X c #814F28",
"4X c #855122",
"5X c #885123",
"6X c #81562C",
/* pixels */
"                                                                                                    ",
"                                                                                                    ",
"                                                                                                    ",
"                                                                                                    ",
"                                                                                                    ",
"                                                                                                    ",
"                                                                                                    ",
"                                                                                                    ",
"                                                                                                    ",
"                                                                                                    ",
"                                                                                                    ",
"6 e e e e e q q q 8 8 8 q q e e q q e e q q 8 8 q e e q q q q q q 8 8 8 8 q q e q q q q q q 8 8 8 & ",
"s.P.P.P.P.P.P.P.P.K.D.R.P.K.P.P.P.P.P.P.P.P.D.T.P.K.P.P.P.P.P.P.P.K.A.T.T.K.P.P.P.P.P.P.P.K.A.D.Y.r ",
"Q @X+X&X&X&X&X&X&X].! R.6X=X&X&X&X&X&X&X&X].D V.w.=X&X&X&X&X&X&X&X%XH f.K.*X=X&X&X&X&X&X&X%XH @.v.r ",
"W 2X@X@X@X@X@X@X@X(.K U.6X2X@X@X@X@X@X@X@X(.m M.6.@X@X@X@X@X@X@X@XoXZ m.H.@X2X@X@X@X@X@X@XoXC } v.r ",
"Q oXoX}.}.}.}.}.}.^.K Y.5.oXoXoX}.}.}.}.}./.m M.6.oXoXoX}.}.}.oX}.`.Z b.J.%X}.oX}.}.}.}.}.`.V } v.r ",
"k Z Z Z Z Z Z Z Z V I D.7.Z Z Z Z Z Z Z Z V B n.8.Z Z Z Z Z Z Z Z V B b.A.H Z Z Z Z Z Z Z Z B  .v.r ",
"v } { } } } }  .o. .&.T.N. .}  .} }  . . . . .C.N. .} } } }  . . . . .C.F.&. . .} }  . . . . .8.Y.r ",
"p.T.F.F.Y.Y.R.T.T.E.T.E.E.T.T.L.T.Y.Y.T.T.T.T.E.E.T.T.L.T.Y.Y.T.T.T.T.R.R.R.T.L.T.Y.Y.Y.Y.F.L.T.L.0 ",
"/ -X-X( | Y.e.>X>X>X>X>X>X>X>X>.~ l.e.>X>X>X>X>X>X<X<X:X^ l.J.5X>X>X>X>X>X>X>X:X^ t.J.4X<X>X<X<X:X3 ",
"W 1XOXQ.K U.6X2X@X@X@X@X@X@X@X(.m m.5.@X@X@X@X@X@X@X@XoXF m.G.=X2X@X@X@X@X@X@XoXZ ..H.@X@X@X@X@XOXz ",
"W OXoXQ.K v.5.OXOX@X@XOXOXOXOX(.m m.6.@X@X@X@XOXOX@X@X}.Z b.G.@XOXOXOXOXOXOXOX}.V X.J.+X@X@X@X@XoXz ",
"A ^.~.V I v.9.^.^.^.^.^.~.~.^.W.B f.3.^.^.^.~.!.!.!.^.Q.V b.J.)._.^.^.^.^.^.^.Q.V o.D.).Q.Q.Q.~.Q.: ",
") {  .o.=.Y.l.X.{ { ` Y b h g g ; t 5 g g g g g g g g g ; t u ; ; ; ; ; h b b { { a.v.@.{ { { } { 1 ",
"p.L.L.T.T.E.T.L.D.v.v.v.f # . .   . .                       .           * d.D.D.L.T.E.T.L.L.v.F.v.0 ",
"/ -X-X-X-X-X-X-X>X;X&.D.k.y.f 8 X                                 o 8 a <.3X<X>X>X>X>X>X>X:X^ -.v.r ",
"W 2X@X@X@X@X@X@X@X`.P S.k.i.v.d.w o       O = 7 6 = O           & s z.k.1.&X@X@X@X@X@X@X@XoXF } v.r ",
"W OXOXOXOXOX@X@XOX(.L l.y.r v.T.v.8 X     8 k.v.v.v.q X       & y.v.v.a 3 .XOXOXOXOXOXOX@X}.Z } v.r ",
"A ~.~.~.~.~.~.~.~.W.K l.k.p.v.T.T.k.8     O 4 g.M.O.] q X   X a v.T.T.k.] R Q.~.Q.Q.Q.Q.Q.Q.V } v.r ",
"c K K K K K K K K K { x.v.k.I.T.T.U.p       X y.M.U [ i o   # p.D.T.T.z.u.` K K K K K K K K D *.I.r ",
"1.C.C.N.C.A.C.Z.Z.C.C.D.d.p v.T.T.T.f o X   X y.L.l.0 O X X = k.T.T.I.f 9 f.N.N.C.S.C.C.C.A.A.D.L.0 ",
"/ -X-X( | v.0.>X-X-X>X>X9.d.v.T.T.T.k.y.f 8 o y.R.v.r % r s p.v.T.T.U.d.<.4.-X-X^ a.J.4X,X,X>X<X:X3 ",
"W OXOXQ.K U.6X@X@X@X@X@X>.p.k.v.T.D.D.T.T.y.= p.T.U.a y z.L.T.D.L.T.v.k.1.%XOX}.Z $.B.=X@X@X@X@XOXz ",
"W OXoXQ.K v.5.OXOXOX@XOXE * = f F.;.;.v.T.v.x.v.T.T.v.v.T.T.S.%.C.v.y & 1 '.OX XV X.K.+XOX@X@X@XoXz ",
"A ^.Q.V K v.3.^.~.~.~.Q.l O p p.Y.N.*.+.S.T.T.T.T.T.T.T.T.n.U *.A.v.y.& + H Q.Q.V o.A.R Q.Q.Q.Q.Q.: ",
"c K K K ! I.b.K K K K K < O d v.T.Y.M.U n.D.S.D.T.T.D.S.v.#.+.D.T.T.p.& @ b K K K &.v.P K K D D D - ",
"u.A.A.A.D.E.T.A.A.C.C.C.a X o f T.T.U.D.v.M.U M.T.T.*.O.D.D.D.T.T.v.6   * s.C.A.A.L.E.D.A.A.S.C.C.9 ",
"/ -X-X-X-X-X-X>X>X>.| D.f X   r v.T.T.T.R.S.b.S.R.T.M.b.D.T.T.T.T.k.O   $ :.-X-X-X-X-X>X<X:X~ =.Y.r ",
"W @X@X@X@X@X@X@X@X`.K A.f     7 x.T.T.T.R.v.k.v.T.T.v.k.I.T.T.T.L.f X   + .X@X@X@X@X@X@X@XoXZ } v.e ",
"].2X@X@X@X@X@X@X@X[.K D.f     o 7 h.T.T.T.y.= p.T.D.a w x.T.T.T.y.&     , .X@X@X@X@X@X@X@XoXZ } v.e ",
"R [.`.`.`.`.`.`.`.!.K D.f       . 8 f f f 8 O i.T.v.r & p f f p *       + R `.`.`.`.`.`.`./.V } v.r ",
"c D D D D D G G G G ! D.f           . X X X & p.T.v.p O X X             @ x D D D D D G G G G #.I.r ",
"i.v.v.v.D.D.D.D.v.v.v.Y.f                 = p.v.T.T.x.f o               % j.v.v.v.v.D.D.v.v.v.L.Y.r ",
",.5.0.8.a.Y.B.r.r.r.r.w.'           % w r y.v.T.T.T.T.v.f r 8 X         $ 2.5.0.7.l.L.e.e.e.e.r.q.5 ",
"W 1XOXQ.K I.6X2X@X@X@X2XT           8 v.v.v.k.v.T.T.v.v.T.T.k.&         + '.1X}.F $.K.=X@X@X@X@XOXz ",
"W 1XOXQ.J I.5.2X2X@X@X2XT           8 v.T.p.2 p.T.T.a w v.T.x.&         + '.OX}.V ..K.=X@X@X@X@XOXz ",
"R {.[.W.J Y.4.[.[.[.[.[.x           * f f 2 X 8 f p & o r f p o         + /.{.(.V ..L.].[.[.[.[.(.l ",
"; n n j b c.[ N N M M k >                                               . h M n j _ k.S N N M M k - "
};
