/* XPM */
static char *b544b341deba4c449bd8e902a7b073e4[] = {
/* columns rows colors chars-per-pixel */
"50 48 189 2 ",
"   c #010101",
".  c #0C0204",
"X  c #070906",
"o  c #0B0B0A",
"O  c #0C0708",
"+  c #10070C",
"@  c #140E09",
"#  c #0E110C",
"$  c #13120E",
"%  c #110C10",
"&  c #0D1112",
"*  c #141314",
"=  c #191212",
"-  c #1A1B16",
";  c #131718",
":  c #191719",
">  c #1B1B1B",
",  c #161815",
"<  c #2B1215",
"1  c #211C21",
"2  c #262626",
"3  c #2C2624",
"4  c #292929",
"5  c #262827",
"6  c #353434",
"7  c #383736",
"8  c #343935",
"9  c #393936",
"0  c #373939",
"q  c #3B3B3A",
"w  c #6C3226",
"e  c #70352D",
"r  c #6A3C37",
"t  c #6E3440",
"y  c #444443",
"u  c #494545",
"i  c #4B4847",
"p  c #4C4C4C",
"a  c #49444A",
"s  c #51504E",
"d  c #4E5253",
"f  c #535353",
"g  c #595856",
"h  c #5B5B5B",
"j  c #535852",
"k  c #564B49",
"l  c #7B4746",
"z  c #794A40",
"x  c #65554D",
"c  c #774E54",
"v  c #6A5F5D",
"b  c #7A5451",
"n  c #60635E",
"m  c #71645E",
"M  c #5A5E61",
"N  c #676767",
"B  c #6E6B67",
"V  c #696768",
"C  c #6B6B6B",
"Z  c #786D6D",
"A  c #6F706A",
"S  c #71716F",
"D  c #7D6E71",
"F  c #747474",
"G  c #7A7375",
"H  c #777978",
"J  c #7E7D7D",
"K  c #7F7A74",
"L  c #814E4D",
"P  c #815248",
"I  c #94554B",
"U  c #855D55",
"Y  c #995A51",
"T  c #85635B",
"R  c #885F65",
"E  c #886C66",
"W  c #93646E",
"Q  c #94716B",
"!  c #8E7672",
"~  c #827D7A",
"^  c #8C7E7D",
"/  c #8B7E76",
"(  c #957975",
")  c #987C79",
"_  c #AE756A",
"`  c #A06F72",
"'  c #A37B74",
"]  c #A67F7D",
"[  c #A37275",
"{  c #B27D75",
"}  c #7F817F",
"|  c #82817D",
" . c #8A807E",
".. c #97807A",
"X. c #A2837F",
"o. c #7A7F83",
"O. c #867F86",
"+. c #AA7781",
"@. c #7E8281",
"#. c #848484",
"$. c #8A8485",
"%. c #858A86",
"&. c #8B8986",
"*. c #878589",
"=. c #8B868B",
"-. c #868A8A",
";. c #8B8B8B",
":. c #948685",
">. c #9B8483",
",. c #928985",
"<. c #95868A",
"1. c #918D8D",
"2. c #9C8A87",
"3. c #8B908D",
"4. c #92918E",
"5. c #8E8C91",
"6. c #928C92",
"7. c #9B8A90",
"8. c #8C9290",
"9. c #939393",
"0. c #999593",
"q. c #999997",
"w. c #999798",
"e. c #9B9B9C",
"r. c #949497",
"t. c #A18786",
"y. c #A08A84",
"u. c #A88B85",
"i. c #A29E9D",
"p. c #A1A19F",
"a. c #A4A4A4",
"s. c #ABABAB",
"d. c #A8A9AB",
"f. c #B0ADAE",
"g. c #AEB0AF",
"h. c #B3AFB0",
"j. c #B2B3B3",
"k. c #BCBCBC",
"l. c #BEC2C1",
"z. c #C3C3C3",
"x. c #C7C9C6",
"c. c #C8C8C6",
"v. c #CDCDCD",
"b. c #DBCFD3",
"n. c #D4D4D4",
"m. c #D8D8D6",
"M. c #D6D6D8",
"N. c #DAD5D9",
"B. c #D8D8D8",
"V. c gray86",
"C. c #DADADA",
"Z. c #DBD9DA",
"A. c #DEDEDE",
"S. c #DDDDDD",
"D. c #DBDBDB",
"F. c #DCD3D6",
"G. c #E0DADC",
"H. c #E0D5D9",
"J. c #DCE0E1",
"K. c #E0E0E0",
"L. c #E2E2E2",
"P. c gray89",
"I. c #E4E4E4",
"U. c gray90",
"Y. c #E6E6E6",
"T. c #E4E4E4",
"R. c #E9E9E9",
"E. c #EDEDED",
"W. c #EEEEEE",
"Q. c #ECECEC",
"!. c #F0F0EE",
"~. c #EEEEF0",
"^. c #EFF3F2",
"/. c #F1F1F1",
"(. c #F2F2F2",
"). c #F5F5F5",
"_. c #F3F3F3",
"`. c #F8F6F7",
"'. c #F4F8F7",
"]. c #FBFBFB",
"[. c #F8F8F8",
"{. c #FDFDFD",
"}. c gray99",
"|. c #FEFEFE",
" X c #FEFFFF",
".X c white",
"XX c #FFFEFF",
"oX c #FDFEFD",
"OX c #FDFDFD",
/* pixels */
"                                                                                                    ",
"                                                                                                    ",
"                                                                                                    ",
"                                                                                                    ",
"                                                                                                    ",
"                                                                                                    ",
"                                                                                                    ",
"                                                                                                    ",
"                                                                                                    ",
"                                                                                                    ",
"                                                                                                    ",
"                                                                                                    ",
": *.9.;.;.;.&.;.;.;.;.;.;.;.;.;.;.9.;.;.&.;.;.;.;.&.;.;.&.;.;.;.&.;.9.;.;.;.&.;.;.;.9.;.9.;.;.*.&.7 ",
"4 L.Y.L.Y.Y.Y.Y.L.Y.L.L.L.Y.L.L.L.Y.L.L.R.L.L.Y.Y.R.Y.Y.Y.Y.Y.L.Y.L.A.Y.Y.L.Y.L.Y.L.Y.L.Y.L.L.Y.!.g ",
"4 n.n.n.n.v.n.n.n.n.n.v.e.k.V.n.n.v.n.n.n.n.n.a.j.n.n.n.n.n.n.n.n.n.A.j.a.n.n.n.n.n.v.n.n.n.n.v.p.0 ",
"5 n.A.n.A.W./.W.W.W.k.e.*.z.V.V.W./.W.W.).c.a.*.s.V.n.n.R./.W./.W.L.s.9.;.n.n.V.A.W.W./.Q.W.z.e.;.7 ",
"5 n.V.n.Y.oXoXoXoXoXs.#.;.z.V.V.oXoXoXoXoXx.J &.j.V.M.M.).oXoXoXoXW.&.*.r.n.V.n.L.oXoXoXoXoXj.J 9.7 ",
"5 n.n.n.R.oXoXoXoXoXs.#.&.z.V.A.oX}.oXoX}.c.*.*.d.J.n.n.~.oX[.oXoXW.9.*.r.n.V.n.Y.oX[.[.oXoXj.*.4.7 ",
"5 n.V.n.Y.oXoXoXoXoXs.*.;.z.n.V.oXoXoX[.oXx.#.*.g.A.M.N._.oX[.oXoXW.;.*.r.V.n.n.A.oXoXoXoXoXj.J 4.7 ",
"4 n.V.v.L.oXoXoXoXoXs.*.*.z.A.A.oXoXoXoXoXx.*.*.f.V.N.N._.oXoXoXoX/.;.;.9.n.V.n.Y.oX[.oXoXoXj.#.4.7 ",
"5 n.V.n.Y././././.).s.*.&.z.n.V.W.`._._.'.l.*.*.h.Z.b.F.R.^.)./.).L.;.&.r.n.V.n.L./.[././.[.s.*.9.7 ",
"5 n.V.A.k.9.9.9.9.r.&.&.&.z.A.v.r.1.9.9.r.3.&.*.f.G.H.G.s.8.9.9.9.r.&.&.r.n.n.A.z.9.r.9.9.9.&.&.4.7 ",
"5 n.v.v.s.#.&.&.&.*.&.;.%.k.c.z.&.*.&.*.*.%.%.#.s.m.x.c.e.#.*.*.*.*.&.*.9.n.n.v.j.#.*.&.&.*.;.&.1.6 ",
"4 n.s.&.9.9.9.;.9.9.9.9.9.s.e.9.9.9.r.r.r.9.9.3.j.A.e.9.r.r.r.r.r.r.r.r.e.V.s.;.9.9.9.9.9.9.9.9.9.7 ",
"4 n.n.n.n.n.n.n.n.n.n.n.A.h 4 7 7 0 7 7 0 8 8 8 q q 9 6 6 7 0 7 0 7 6 5 y n.n.n.v.n.v.n.n.v.n.v.Z.s ",
"5 n.V.n.n.n.V.V.n.n.V.n.n.V 0 >     X                               7 q g n.n.n.n.V.V.n.V.n.V.m.n.f ",
"5 n.V.n.n.V.V.V.V.V.n.k.;.&.e.g X       X X # o # # o       X   X 2 9.9.;.n.V.n.V.V.V.n.V.A.n.z.9.6 ",
"5 n.V.n.Y.[.[.[.[.[.j.&.&.2 f 9.F o       q ;.~ ~ :.v .         u *.;.N 5 n.V.n.L.).[.oX[.[.j.&.;.7 ",
"4 n.V.n.R.oXoXoXoXoXa.#.9.0 f r.#.4 = .   q @.:.+.+.R < @   X & h 9.9.V 6 v.V.n.L.oXoXoXoXoXs.#.9.0 ",
"5 n.V.n.Y.oXoXoXoXoXs.*.;.J *.&.;.&.G .     o ^ W t c ( 3   ; #.;.&.&.&.&.n.V.n.L.oXoXoXoXoXs.#.1.7 ",
"5 n.V.n.Y.oXoXoXoXoXa.*.r.4 f 9.%.8.H o o   o ~ :.:.m @ o   > *.;.&.9.V 4 v.n.n.Y.[.[.oXoXoXj.#.9.7 ",
"5 n.V.n.R.oXoXoXoXoXs.*.;.J #.;.&.,.$.H J 0   | ;.4.A   f G G <.;.;.;.*.J n.V.n.Y.oXoXoX[.oXj.#.1.7 ",
"5 n.n.n.n.n.n.n.n.n.e.*.;.&.&.$.X.] ) >.e.d * | 1.9.S X C 0.>.) $.;.$.*.9.n.n.n.n.n.n.n.n.M.a.*.9.6 ",
"2 n.V.T.k.#.#.&.*.#.;.&.9.7   k X.r l ] :.%.| ;.*.6.*.| ;.2.' r D H =   4 v.L.A.z.#.&.*.#.*.&.;.1.7 ",
"5 n.k.s.e.#.&.*.*.;.#.#.;.2 : B 2.U I Y ( ,.;.&.5.=.;.1.:.Q I I ! $.i 3 > n.z.s.a.&.*.&.&.*.#.*.;.6 ",
"5 n.k.a.a.s.s.a.a.a.s.d.s.4 f i. .u._ w T y.2.<.5.=.2.y.t.b e { >.1.i.G 1 n.k.a.a.s.a.a.d.a.d.a.s.q ",
"4 n.A.V.V.V.V.V.A.V.V.n.L.q * V 6.$...E ) Q P ' <.7.` L ( ( E >.,.#.i 2 > v.V.A.A.n.A.V.B.A.A.V.L.g ",
"5 v.V.V.n.n.V.n.n.n.n.c.r.6   a e.&.&.,.y.T z ' :.<.[ l ! ,.<.=.9.J     > n.V.n.n.n.n.n.n.M.n.c.w.0 ",
"4 n.n.n.n.n.n.n.n.n.A.z.&.4   6 N *.5.=.1.D x / ;.1.^ x K 1.6.6.F f o   : v.V.n.n.n.n.n.n.n.A.v.;.0 ",
"4 n.V.N.A.W.W.W././.k.e.9.5       } ;.*.r.a   | ;.9.B   n 8.*.9.q       : n.n.n.A.W.W.W.W._.z.e.9.6 ",
"4 n.n.n.R.oXoXoXoXoXa.J 9.4       , > 1 1 % $ | &.9.S   ; > - - o       : n.V.n.Y.oXoXoXoXoXs.J 9.7 ",
"5 n.A.n.R.oX[.oXoXoXs.*.9.4             X     J &.;.C   X               : n.A.n.Y.oXoXoXoXoXj.*.9.7 ",
"5 v.A.n.Y.oXoXoXoXoXs.*.9.4           X   5 n #.3.8.o.M *               : v.V.n.L.oXoXoX[.oXj.J 9.7 ",
"4 n.V.n.Y.oXoXoXoXoXs.J 9.4         X : $ j q.;.-.-.-.r.y $ =           : v.A.n.Y.oXoXoXoXoXj.#.9.7 ",
"5 n.n.n.Y.).[./.)./.s.*.9.5         * J %.#.#.*.*.&.&.} | &.G +         > n.V.n.L./.).^.).[.s.*.4.7 ",
"4 n.V.V.k.r.r.r.9.e.&.&.r.4         : 4.e.f * 6.r.q.S o C e.O.O         : v.V.A.z.;.r.r.9.9.9.&.4.6 ",
"5 V.j.r.9.&.&.&.&.&.&.;.9.5         O u p 4   a p p 7   6 f q           > n.k.r.r.&.;.*.;.&.&.&.4.7 ",
"5 v.a.J #.*.&.*.*.*.&.#.&.5             X   X                           > v.a.J #.*.#.*.*.*.*.#.;.6 "
};
