/* XPM */
static char *_413fdbe4931444db0043423c86c586a[] = {
/* columns rows colors chars-per-pixel */
"50 50 199 2 ",
"   c black",
".  c #150303",
"X  c #03150B",
"o  c #03180D",
"O  c #16150D",
"+  c #18150D",
"@  c #16180D",
"#  c #030B15",
"$  c #160B15",
"%  c #180B15",
"&  c #180C19",
"*  c #0B1616",
"=  c #0B1B15",
"-  c #0B1C18",
";  c #161616",
":  c #191616",
">  c #161A16",
",  c #191A17",
"<  c #19161A",
"1  c #171C19",
"2  c #1A1A1A",
"3  c #201F1F",
"4  c #192015",
"5  c #172318",
"6  c #1A221A",
"7  c #1A2A1B",
"8  c #1A321E",
"9  c #1C3A1F",
"0  c #22251F",
"q  c #21341F",
"w  c #152E20",
"e  c #1B2B21",
"r  c #173323",
"t  c #1A3323",
"y  c #1D3D21",
"u  c #222222",
"i  c #242A25",
"p  c #272B28",
"a  c #2A2D2A",
"s  c #213122",
"d  c #223B20",
"f  c #2C312E",
"g  c #2E3331",
"h  c #2F3C34",
"j  c #343B34",
"k  c #1D4323",
"l  c #1D4D25",
"z  c #1A4329",
"x  c #1D4B2A",
"c  c #1C5226",
"v  c #1D5529",
"b  c #1E5A2C",
"n  c #204323",
"m  c #224B25",
"M  c #26472C",
"N  c #205327",
"B  c #205629",
"V  c #2B572F",
"C  c #205E2E",
"Z  c #37443A",
"A  c #3A463E",
"S  c #235E30",
"D  c #2B5D33",
"F  c #1E622F",
"G  c #1F6531",
"H  c #1F6933",
"J  c #20622F",
"K  c #216531",
"L  c #2B6335",
"P  c #216C35",
"I  c #2B6937",
"U  c #2A6739",
"Y  c #216E38",
"T  c #2C6C3A",
"R  c #316635",
"E  c #38613F",
"W  c #326E3D",
"Q  c #207137",
"!  c #21743A",
"~  c #29733C",
"^  c #227B3E",
"/  c #2D7A3E",
"(  c #3D4740",
")  c #356945",
"_  c #237E42",
"`  c #2C7943",
"'  c #397844",
"]  c #424944",
"[  c #47554A",
"{  c #4E5B52",
"}  c #437D48",
"|  c #4E6655",
" . c #536457",
".. c #4A7151",
"X. c #55715A",
"o. c #5E7B69",
"O. c #26823F",
"+. c #248245",
"@. c #248645",
"#. c #2A8546",
"$. c #268945",
"%. c #288945",
"&. c #258448",
"*. c #288549",
"=. c #2B8B4D",
"-. c #318745",
";. c #2C924B",
":. c #32914D",
">. c #2E8E52",
",. c #318E53",
"<. c #2E9351",
"1. c #329454",
"2. c #349A56",
"3. c #329B5A",
"4. c #369A60",
"5. c #3FA367",
"6. c #4A8A56",
"7. c #40965A",
"8. c #50935C",
"9. c #419760",
"0. c #63816B",
"q. c #6D947B",
"w. c #699A7A",
"e. c #42A46B",
"r. c #55A16D",
"t. c #44B367",
"y. c #46A971",
"u. c #4CAC75",
"i. c #51AE74",
"p. c #54AE79",
"a. c #4DB478",
"s. c #55B37D",
"d. c #5BB47D",
"f. c #5AB97E",
"g. c #65AA7C",
"h. c #739682",
"j. c #759884",
"k. c #57B381",
"l. c #5DB683",
"z. c #5DBA84",
"x. c #78A888",
"c. c #63BB87",
"v. c #68B988",
"b. c #74BB88",
"n. c #5DC289",
"m. c #6DC08E",
"M. c #77C48F",
"N. c #64C293",
"B. c #6BC391",
"V. c #6DCC99",
"C. c #75C89B",
"Z. c #7CCEA2",
"A. c #7ED2A3",
"S. c #70D0A9",
"D. c #80A68E",
"F. c #86B697",
"G. c #8ABC9B",
"H. c #8CBDA0",
"J. c #91BFA2",
"K. c #83C68F",
"L. c #8CC49C",
"P. c #87CAA0",
"I. c #8DCCA4",
"U. c #97C4AA",
"Y. c #99C6AD",
"T. c #89D2A5",
"R. c #86D3AC",
"E. c #8DD5AC",
"W. c #8CD9AE",
"Q. c #96D5AA",
"!. c #91D6AF",
"~. c #9BCAB2",
"^. c #88D6B0",
"/. c #8CDAB2",
"(. c #96D5B0",
"). c #91DCB5",
"_. c #9CDBB5",
"`. c #9EDCB9",
"'. c #A1D6B7",
"]. c #A2DABB",
"[. c #A2E4BD",
"{. c #A3E4C2",
"}. c #ABE6C5",
"|. c #A6EAC0",
" X c #ABEAC6",
".X c #ADEBCC",
"XX c #B3EDCE",
"oX c #B8EDCF",
"OX c #A1F5C3",
"+X c #ADF2CD",
"@X c #B2F0CF",
"#X c #B3EED1",
"$X c #BAEED7",
"%X c #B5F3D2",
"&X c #BAF4D6",
"*X c #B6F8D4",
"=X c #BCF4DA",
"-X c #BCF8DB",
";X c #C0F6D6",
/* pixels */
", 6 6 6 e t r w 6 6 6 = X                                                 O , 6 6 6 e t t r r t t 6 ",
", d k k K ! ! P x k y 7 =                                                 O , q k l b Y ! ! ! ! Y x ",
"6 k c v ! @.@._ J N m 7 =       . $ $ $ $ $ $ $ $ $ $ $ $ $ $ $ $ $       O 4 y l v P +.@.@.@.@.+.v ",
"6 k c v P ^ ^ ^ ~ R V s 2 $ . O > , , , < < < 1 1 1 1 1 1 1 > > > > ; . . O 4 y l v H ^ _ ^ ^ ^ ^ x ",
"6 k c v b F F K g.P.K...6 < . , 6 7 7 7 7 7 7 7 7 7 7 7 7 7 7 7 7 7 2 @ . O 4 y l c b F F F F G b t ",
"6 k c c c c c D G.#XXXw.i < . 2 q k l l l l l l l l l l l l l l l k 7 > . O 6 y l c c c c c c c l 7 ",
"6 k c c c l l L I.*X*XF.p < : 2 d m N N N N N c c c c c c c c c v l 7 , + , 6 y l c c l l l l c l 7 ",
"6 k c c v v B I R.&X*XG.f 2 2 i D W W W W W T S b b b b b b v v c l 7 1 , 2 6 k l c v b b b b b v 8 ",
"6 k c v K ! ! #.R.&X&XL.M 7 7 E M.T.E.!.(.(.I.9.^ ! ! ! ! ! P v c l 9 8 8 8 9 l c v K ! ! ! ! ^ ! z ",
"6 k c v Y &.&.<.^.&X=XI.D n m 6.[.#X&X&X&X=XXXp.@.+.+.+.+.+._ b l l l l l l l c c v P _ +.+.+.+.+.v ",
"6 k c v P &.@.<./.&X=XQ.R m m 8.{.#X%X%X*X=XXXu.@.+.+.+.+.+._ C l c c c c c c c c v P _ +.+.+.+.+.v ",
"6 k c v F Q ! #.W.&X&X`.6.' } b..X#X#X[.V.C.B.,.! Q Q P P P P K K J b v c c c c c c J P Q Q ! ! Q k ",
"6 k c c v v v T E.&X%X@X[.[.[. X+X%X&XC.<.;.*.P v v v v v v b ! _ _ H v c c c c c c v v v v v b v 7 ",
"6 k c c c l l L E.%X%X@X@X#X#X#X%X%X&Xc.%.O.^ F l l l c c l b ! &.&.Q v c c c c c c c c l l l c l 7 ",
"6 k c c c c l I E.%X@X@X@X@X%X@X.X#XXXf.;.=.+.G v c c c c l b ^ &.&.Q v c c c c c c c c c c c v l 7 ",
"6 n c v C K K / /.%X@X@X@X@X@X[.c.s.d.f.V.S.N.>.K K G v c l b ^ &.&.Q v c c c c c c b K H H H H G y ",
"6 n c v P _ _ <./.%X@X@X@X@XXXW.1.#.#.i..X&X}.y._ _ ^ b c l b ^ &.&.! v c c c c c c H _ _ _ _ _ _ x ",
"6 k c v Y &.&.2.).%X@X@X@X@XXXR.>.+.#.p.XX=XXXu.+.+.^ b c l b ^ &.&.! v c c c c c c P +.@.@.@.@.+.v ",
"6 k c v K _ +.:.).%X@X@X@X@XXXZ.>.+.#.s..X=X Xu.+.+.^ b c l b ^ &.&.! v c c c c c c K ^ _ _ _ _ _ x ",
"6 k c c b K K / ).%X%X@X@X@X@XZ.=.+.@.d..X=X Xu.+.+.^ b l l b ^ &.&.! v c c c c c c b F G F G G F t ",
"6 k c c c c c I !.%X%X@X@X@XXXZ.=.+.@.d..X&X Xu.+.+.^ b l l b ^ &.&.! v c c c c c c c c c c c c l 7 ",
"6 k c c c l l L W.%X@X@X@X@XXXZ.=.+.@.l..X&X Xp.@.@.^ b l l b _ &.&.! v c c c c c c c l l l l l l 7 ",
"6 k c c v b B T /.#X@X@X@X@XXXZ.=.+.#.l..X&X.XN.3.3.*.H v v K _ @.&.! v c c c c c c v b b b b b v 8 ",
"6 n c v K ! ! #./.%X@X@X@X@XXXZ.=.+.#.z..X&X#X{./.).Z.,.! ! _ +.&.&.! v c c c c c c K ! ! ! ! ! ! k ",
"6 n c v Y +.@.1.).%X@X@X@X@XXXZ.=.+.@.z..X&X%X#X%X&X}.e._ +.+.+.+.+.! v c c c c c c P _ +.+.+.@.+.v ",
"6 k c v P +.@.1.).#X@X@X@X@XXXZ.>.#.%.n..X#X%X%X%X;X}.e.+.+.+.+.+.+.! v c c c c c c P +.+.+.+.@.+.v ",
"6 k c v G ! ! -./.%X@XXX@X@X#X).y.5.e.n.Z.A.A.A.A.Z.m.1.+.+.+.+.+.&.! v c c c c c c J Q ! ! ! ! ! z ",
"6 k c c v v v T W.#X@XXX@X@X%X.X{.{.{.c.1.,.>.>.>.>.=.&.+.+.+.+.+.&.! v c c c c c c v v v v v b v 7 ",
"6 k c c c l l L E.%X%X@XXXXXXXXX#X#XXXc.*.+.+.#.+.+.+.+.+.+.+.+.&.&.! v c l l c c c c l l l l l l 7 ",
"6 k c c c c l I E.%X%X@X X{.}. XXX#XXXd.*.+.+.*.*.&.&.+.+._ _ +.+.&.P y y y y l c c c c c c c c l 7 ",
"6 k c v C K K ~ R.XX%X].o. . .D. X%X#Xd.*.+.&.4.s.k.y.` P P Y Y ! P y 4 = > 7 k l c b G G G G H G y ",
"6 n c v P _ _ =./.%X#XJ.f 2 2  .[.%X%Xd.&.+.&.l. XXX_.` v c v v v l 5 > O > 6 y l v K _ _ _ _ _ ^ x ",
"6 k c v ! &.&.<./.%X%XH.a < < [ `.#X#Xd.$.+.=.B.oX=X].' v c c c c l 5 =   @ 6 y l v P +.+.+.+.@.+.v ",
"6 k c v K _ +.=./.&X*XG.p < < A G.'.'.r.~ U T v.XX&X`.W k k k k k y 5 o   O 6 y l v P _ _ _ _ _ _ x ",
"6 k c c b K K ~ W.&X*XG.p & < u Z ( A f e 6 e w. X&X~.h 6 5 5 5 5 > = X . O 6 y l v b G G G G G G y ",
"6 k c c c c c L I.=X*XF.p < . < < < < 1 = , u q. X*X~.g 2 * O ; ; O X   . + 2 y c c c c c c c c l 7 ",
"6 k c c c l l D P.-X-Xx.i < . . $ . .     : u h. X*XY.g <   . . .       . + 6 y c c c l l l l l l 7 ",
"6 k c v v v B K M.+XOXg.u &               : u h. X*XY.g <               . , 0 V I I S b v v v b v 8 ",
"6 k c v K ! ! ^ 2.t.t.) 6 $               : u j. X*XY.g <               . 2 Z b.T.I.7.! ! ! ! ! Q k ",
"6 k c v ! +.@.@.$.$.^ m 1 O .             : u j. X*XU.g <               % 2 | [.-X$Xs.$.@.+.+.@.+.v ",
"6 k l c ! _ _ ^ _ ^ ^ x - O               : u j. X*XU.f <               $ 2 X.[.=X%Xa.@.+._ _ _ _ v ",
"1 7 8 8 y z z z z z z e - ;               : u j. X*XU.f <               . < j 0.h.q.) x z z z z z e ",
"* = = = 1 1 - - 1 1 1 > > $               : u j. X*XU.f <               . : 2 6 u 6 2 1 1 1 1 - 1 > ",
"    # ; ; ; O O ; ; : ; .                 : u j. X*XU.f <               . . ; ; , , ; O . O O O O O ",
"                                          : u j. X*XU.f <                                           ",
"                                          : u h. X%XU.f <                                           ",
"                                          : u h. X*XU.f <                                           ",
"                                          : u q.|.%XU.f <                                           ",
"                                          : 3 0.(.[.F.a <                                           ",
"                                          $ 2 j [ { ] u :                                           "
};
