/* XPM */
static char *b39e06e8f60b4989a4291b288cff0490[] = {
/* columns rows colors chars-per-pixel */
"50 50 200 2 ",
"   c black",
".  c #150303",
"X  c #03150B",
"o  c #03180D",
"O  c #16150D",
"+  c #18150D",
"@  c #16180D",
"#  c #030B15",
"$  c #160B15",
"%  c #180B15",
"&  c #180C19",
"*  c #0B1616",
"=  c #0B1B15",
"-  c #0B1C18",
";  c #161616",
":  c #191616",
">  c #161A16",
",  c #191A17",
"<  c #19161A",
"1  c #171C19",
"2  c #1A1A1A",
"3  c #201F1F",
"4  c #192015",
"5  c #172318",
"6  c #1A221A",
"7  c #1A2A1B",
"8  c #1A321E",
"9  c #1C3A1F",
"0  c #22251F",
"q  c #21341F",
"w  c #152E20",
"e  c #1B2B21",
"r  c #173323",
"t  c #1A3323",
"y  c #1D3D21",
"u  c #222222",
"i  c #242A25",
"p  c #272B28",
"a  c #2A2D2A",
"s  c #213122",
"d  c #223B20",
"f  c #2C312E",
"g  c #2E3331",
"h  c #2F3C34",
"j  c #343B34",
"k  c #1D4323",
"l  c #1D4D25",
"z  c #1A4329",
"x  c #1D4B2A",
"c  c #1C5226",
"v  c #1D5529",
"b  c #1E5A2C",
"n  c #204323",
"m  c #224B25",
"M  c #26472C",
"N  c #205327",
"B  c #205629",
"V  c #2B572F",
"C  c #205E2E",
"Z  c #37443A",
"A  c #3A463E",
"S  c #235E30",
"D  c #2B5D33",
"F  c #1E622F",
"G  c #1F6531",
"H  c #1F6933",
"J  c #20622F",
"K  c #216531",
"L  c #2B6335",
"P  c #216C35",
"I  c #2B6937",
"U  c #2A6739",
"Y  c #216E38",
"T  c #2C6C3A",
"R  c #316635",
"E  c #38613F",
"W  c #326E3D",
"Q  c #207137",
"!  c #21743A",
"~  c #29733C",
"^  c #227B3E",
"/  c #2D7A3E",
"(  c #3D4740",
")  c #356945",
"_  c #237E42",
"`  c #2C7943",
"'  c #397844",
"]  c #424944",
"[  c #47554A",
"{  c #4E5B52",
"}  c #437D48",
"|  c #4E6655",
" . c #536457",
".. c #4A7151",
"X. c #55715A",
"o. c #5E7B69",
"O. c #26823F",
"+. c #248245",
"@. c #2A8546",
"#. c #268945",
"$. c #288945",
"%. c #258448",
"&. c #288549",
"*. c #2B8B4D",
"=. c #318745",
"-. c #2C924B",
";. c #32914D",
":. c #2E8E52",
">. c #318E53",
",. c #2E9351",
"<. c #329454",
"1. c #349A56",
"2. c #329B5A",
"3. c #369A60",
"4. c #3FA367",
"5. c #4A8A56",
"6. c #40965A",
"7. c #50935C",
"8. c #419760",
"9. c #63816B",
"0. c #6D947B",
"q. c #699A7A",
"w. c #42A46B",
"e. c #55A16D",
"r. c #44B367",
"t. c #46A971",
"y. c #4CAC75",
"u. c #51AE74",
"i. c #54AE79",
"p. c #4DB478",
"a. c #55B37D",
"s. c #5BB47D",
"d. c #5AB97E",
"f. c #65AA7C",
"g. c #739682",
"h. c #759884",
"j. c #57B381",
"k. c #5DB683",
"l. c #5DBA84",
"z. c #78A888",
"x. c #63BB87",
"c. c #68B988",
"v. c #74BB88",
"b. c #5DC289",
"n. c #6DC08E",
"m. c #77C48F",
"M. c #64C293",
"N. c #6BC391",
"B. c #6DCC99",
"V. c #75C89B",
"C. c #7CCEA2",
"Z. c #7ED2A3",
"A. c #70D0A9",
"S. c #80A68E",
"D. c #86B697",
"F. c #8ABC9B",
"G. c #8CBDA0",
"H. c #91BFA2",
"J. c #83C68F",
"K. c #8CC49C",
"L. c #87CAA0",
"P. c #8DCCA4",
"I. c #97C4AA",
"U. c #99C6AD",
"Y. c #89D2A5",
"T. c #86D3AC",
"R. c #8DD5AC",
"E. c #8CD9AE",
"W. c #96D5AA",
"Q. c #91D6AF",
"!. c #9BCAB2",
"~. c #88D6B0",
"^. c #8CDAB2",
"/. c #96D5B0",
"(. c #91DCB5",
"). c #9CDBB5",
"_. c #9EDCB9",
"`. c #A1D6B7",
"'. c #A2DABB",
"]. c #A2E4BD",
"[. c #A3E4C2",
"{. c #ABE6C5",
"}. c #A6EAC0",
"|. c #ABEAC6",
" X c #ADEBCC",
".X c #B3EDCE",
"XX c #B8EDCF",
"oX c #A1F5C3",
"OX c #ADF2CD",
"+X c #B2F0CF",
"@X c #B3EED1",
"#X c #BAEED7",
"$X c #B6F0D1",
"%X c #B5F3D3",
"&X c #B7F3D5",
"*X c #BAF4D6",
"=X c #B6F8D4",
"-X c #BCF4DA",
";X c #BCF8DB",
":X c #C0F6D6",
/* pixels */
"              * 1 6 6 6 6 6 6 6 6 6 6 6 6 6 6 6 6 6 6 6 6 6 6 6 6 6 6 6 6 6 6 6 6 6 6 6 6 6 6 6 , , ",
"              = 7 k k k k k k k k k n k k k k k k n n k k k k k k n n k k k k k k k k k k k k k d 6 ",
"            # = 8 l c c c c c c c c c c c c c c c c c c c c c c c c c c c c c c c c c c c c c c k 6 ",
"            ; = 8 c v v c c c c c v v c c c c v v v v c c c c v v v c c c c v v v v c c c c v v k 7 ",
"            ; 1 y Q Q K v c c b P Q P C c c v G P Y K v c c b H Y P C c c v F P Y K v c c b P ! K e ",
"            ; 1 z _ +.! v l c K _ %._ K c l v ! +.+.! b l c K _ %._ K c l v Q %.%.! v l c F ^ #.Q t ",
"            O - z _ #.! B l c K +.%._ K l l v ! #.#.! B l c K +.%._ K l l v Q #.%.! B l c F ^ #.Q r ",
"            O - z ^ #.^ K D L ~ *.,.*.~ I L T =.<.<.@.T L I / ;.1.,./ I L T @.,.,.@.I L D K ^ _ P w ",
"            ; 1 z ^ #.1.m.L.P.R.^.^.^.T.R.R.R.(.(.(.^.^.R.Q.(.(.(.^.^.R.R.R.E.^.~.T.T.P.F.f.~ J x 7 ",
"            ; 1 z ^ #.r.OX;X-X*X*X$X$X.X$X$X@X$X@X$X$X$X$X$X$X$X$X$X$X$X$X&X*X*X&X&X&X&X@XL.R N k 6 ",
"            : 1 z ^ ^ r.oX;X&X&X&X$X@X$X$X$X+X+X+X+X+X+X+X$X$X+X+X+X+X+X$X$X*X-X-X*X&X&X.XJ.V m y 6 ",
"            ; ; e x m ) f.z.D.F.F.G.H.'.+X+X.X.X+X+X+X+X+X+X+X+X+X+X+X+X+X+X_.W.P.K.F.D.z...s 5 5 = ",
"            . ; - - 1 6 u i p p p a f o.|..X+X+X+X+X+X+X+X+X+X+X+X+X+X+X+X].5.R D M f p i 6 2 = = X ",
"              $ ; O O $ & < < & < < 2 | [..X+X+X+X+X+X+X+X+X+X+X+X+X+X+X@X].' m n 7 2 < < < $       ",
"                    .     . . < < < 2  .{..X$X@X.X.X.X.X.X.X+X.X.X.X+X$X@X].} m m 7 2 : . . .       ",
"                          . < u A [  .S.|..X X(.C.C.C.C.C.C.C.C.T.E.].+X@X|.v.7.5.E i 2 2 , O       ",
"                          $ < Z F._.].|..X@X[.t.:.*.*.*.*.*.*.:.:.<.x. X$XOX|.[.].m.D d q 6 ; .     ",
"                          . < ( `.@X$X$X@X@X[.4.@.+.+.+.+.+.+.+.+.@.a.@X$X$X@X@X@XY.W m k 7 , $     ",
"                          . < A `.@X$X@XXXXX[.w.$.#.@.@.#.#.#.@.@.@.s. X*X*X@X$X&XR.W N l 7 , $     ",
"                            > f e.s.s.s.s.x.x.b.b.l.l.k.k.s.s.a.i.u.s.d.x.V.].$X&XQ.W N l 7 , $     ",
"                            = e ~ #.%.&.&.&.<.C. X X X X X X X X.X|.B.-.$.,.B.&X*X/.W N l 7 < $     ",
"$ : : : : : : : : : : : : : , 7 U +.+.+.+.+.>.Z.@X&X&X&X*X*X-X-X-X*XA.*.O.-.V.;X;X/.W N l 7 < $     ",
"2 3 u u u u u u u u u u u u u e T *.%.%.+.+.:.Z.$X$X@X X X X X X.X{.M.+.^ *.N..XXXP.T N l 7 < $     ",
"j 9.0.h.h.h.h.h.h.h.h.h.h.g.0.q.c.N.k.3.&.+.:.Z.$X@X[.M.i.y.y.y.y.t.:.G F P >.y.i.8.S c l 7 > $     ",
"[ /.}.|.|.|.|.|.|.|.|.|.|.|.|.|..XXX|.a.&.+.:.Z.$X$X^.2.#.+.+.+.+.^ P v l v Q #.#.^ b c l 7 > $     ",
"{ ].$X=X$X&X&X&X=X=X&X&X&X&X$X*X*X-XXXj.%.+.:.C.:X*X(.2.#.+.+.+.+._ P c l v Q +.+.! b c l 7 > $     ",
"] D.I.I.I.I.I.I.I.I.I.I.U.U.!.!._.'.).t.%.+.*.n.{.{.V.*.^ ^ ^ ^ ^ ^ G c l v Q +.+.! b c l 7 > $     ",
"u a f f f f f f f f g g g g g h W ' ` ` +.+.%.<.w.w.>.H b b b b b b v c c v P +.+.! b c l 7 > $     ",
": < < < < < < < < < < < < < 2 6 k v v P +.+.+.+.+._ ! v l l l c c c c c c v P +.+.! b c l 7 > $     ",
"                            * 5 k c c P _ +.+.+.+.+.! v l l l l l l l l l v P +.+.! b c l 7 > $     ",
"                          . O 5 k c v Y _ +.+.+.+.+._ K b b b b b b b b b b P _ _ P v c l 7 ; $     ",
"                          . ; 5 k l v Y +.%.+.+.+.+.+._ _ ^ ^ ^ ^ ^ ^ ^ ! Q K C b v v c l 7 ; $     ",
"                          . ; 5 k c v Q +.%.+.+.+.+.%.#.%.%.%.%.%.%.%.%.%._ K l l c c c l 7 ; $     ",
"                            O > y l l P %.%.%.%.+.+.%.%.%.%.%.%.%.%.%.%.%._ J c l l l l k 5 ; $     ",
"                            X = 5 5 5 y P ! ! ! Q ! Q Q Q Q Q Q Q Q Q Q Q H b c l 9 7 7 5 2 ;       ",
"                              X o = ; 4 y v v v v v v v v v v v v v v v v v v c l 8 1 , > @ .       ",
"            . . . $ % . . . . .     O = y c c c c c c c c c c c c c c c c c c c l 8 , + . . .       ",
"            . : < 2 2 2 , + + O O @ ; > y l c c c c c c c c c c c c c c c c c c l 8 2 , O O O O O O ",
"            ; 2 j X.| Z 0 6 2 6 6 6 6 5 y l c c c c c c c c c c c c c c c c c c l 9 6 6 6 4 4 4 , < ",
"            ; 6 9.].].v.V y y y y y y k l c c c c c c c c c c c c c c c c c c c c l k y y y y y q 6 ",
"            , u g.-X;XY.I c l l l l l l c c c c c c c c c c c c c c c c c c c c c c l l l l l l k 6 ",
"            , 6 0.$X#XP.I c c v v v v c c c c c c c c c c c c c c c c c c c v v v v c c c c v v l 6 ",
"            ; 2 ) p.a.6.S c c b P P P b c c v J P P K v c c b K P H b c c v J P P K v c c b H P b e ",
"            O 1 x #.#.! b l c G _ _ _ G c l v Q +._ Q b l c F ^ +._ K c c v P _ _ ! b l c F ^ +.Y t ",
"            . 1 z +.+.! v l c G _ +._ G c l v Q +.+.! b l c G _ #._ H c l v Q +.+.! b l c F _ #.Q t ",
"            O 1 z _ +.! v l c G _ +._ G c l v Q +.+.! b l c F _ #._ H c l v Q +.+.! b l c F ^ #.Q r ",
"            O 1 z _ +.! v l c G _ #._ G c l v ! +.+.! b l c G _ #._ H c l v Q +.+.! b l c F ^ #.! r ",
"            O - z _ #.! b l c G +.#._ H c l b ! #.#.! b l c G _ #._ H v c b ! +.+.^ b c c G ^ #.! t ",
"            O 1 z _ +.Q v l l G _ +.^ G l l v Q +.+.Q v l l G _ +._ G l l v Q +.+.Q v l l b ^ +.Y t ",
"            O ; e v v k 8 7 7 y x v x y 7 7 7 k v v k 8 7 7 t x v x y 7 7 7 k v v z 8 7 7 t x v x 7 "
};
