/* XPM */
static char *ae5093963d4d44859d192751230685b0[] = {
/* columns rows colors chars-per-pixel */
"50 50 219 2 ",
"   c #010000",
".  c #0A0605",
"X  c #030B05",
"o  c #090B06",
"O  c #09040B",
"+  c #050D09",
"@  c #0B0B0B",
"#  c #100D0E",
"$  c #051306",
"%  c #0B1306",
"&  c #081B06",
"*  c #05110A",
"=  c #0B160A",
"-  c #071C0A",
";  c #0B1A0A",
":  c #11140B",
">  c #0F1511",
",  c #0C1C11",
"<  c #151515",
"1  c #171C17",
"2  c #171C18",
"3  c #072007",
"4  c #0B220A",
"5  c #0B2C0C",
"6  c #12290C",
"7  c #0C350E",
"8  c #0E3A0E",
"9  c #14330E",
"0  c #123D0F",
"q  c #062413",
"w  c #0D2214",
"e  c #062C16",
"r  c #092C15",
"t  c #082D18",
"y  c #172618",
"u  c #1C231E",
"i  c #0A3814",
"p  c #0C3C14",
"a  c #0A3F1A",
"s  c #103B15",
"d  c #20261F",
"f  c #1F3723",
"g  c #242925",
"h  c #252B29",
"j  c #2A362C",
"k  c #303E34",
"l  c #0A400F",
"z  c #0D4311",
"x  c #0C4D12",
"c  c #07401B",
"v  c #0B421D",
"b  c #0C4A1B",
"n  c #114210",
"m  c #144C12",
"M  c #144B1C",
"N  c #0B5213",
"B  c #0B5916",
"V  c #0C531C",
"C  c #0D5C1A",
"Z  c #115313",
"A  c #115717",
"S  c #235C1D",
"D  c #0D651D",
"F  c #0D691F",
"G  c #11641C",
"H  c #10681D",
"J  c #0F4520",
"K  c #0B5122",
"L  c #195B21",
"P  c #235B27",
"I  c #344337",
"U  c #0F6622",
"Y  c #0E6B23",
"T  c #156220",
"R  c #1E6124",
"E  c #116E24",
"W  c #166C29",
"Q  c #0D7326",
"!  c #0F7927",
"~  c #0E752A",
"^  c #0E792D",
"/  c #0E7A2C",
"(  c #117427",
")  c #10742C",
"_  c #127B2B",
"`  c #1C782C",
"'  c #1C6E34",
"]  c #0F7F31",
"[  c #107F32",
"{  c #1C7A32",
"}  c #246625",
"|  c #236628",
" . c #226D2A",
".. c #23712C",
"X. c #26782E",
"o. c #2D6939",
"O. c #306336",
"+. c #277231",
"@. c #287738",
"#. c #397D3B",
"$. c #3E4740",
"%. c #435546",
"&. c #4C5B50",
"*. c #4B6D51",
"=. c #516455",
"-. c #5C7F69",
";. c #14842F",
":. c #0F8232",
">. c #0F8233",
",. c #0F8335",
"<. c #0F8535",
"1. c #0F8338",
"2. c #108132",
"3. c #118534",
"4. c #118636",
"5. c #108A36",
"6. c #138B36",
"7. c #118738",
"8. c #118639",
"9. c #188238",
"0. c #108939",
"q. c #128A3B",
"w. c #1A8C3C",
"e. c #159037",
"r. c #1B933E",
"t. c #1A993B",
"y. c #238B36",
"u. c #3D813D",
"i. c #198F46",
"p. c #1C9244",
"a. c #1E9846",
"s. c #1D9749",
"d. c #239644",
"f. c #229B46",
"g. c #229449",
"h. c #239B4A",
"j. c #28994C",
"k. c #219E50",
"l. c #389D56",
"z. c #27A256",
"x. c #39AA66",
"c. c #3CB667",
"v. c #418F4D",
"b. c #49914F",
"n. c #4C9955",
"m. c #638569",
"M. c #6A967C",
"N. c #6D9B7B",
"B. c #44AF6B",
"V. c #4BAD6A",
"C. c #45B274",
"Z. c #4DB475",
"A. c #4ABA78",
"S. c #54B77A",
"D. c #55BB7A",
"F. c #5BBC7D",
"G. c #66AD7A",
"H. c #60B27A",
"J. c #759B83",
"K. c #5BBE82",
"L. c #71A780",
"P. c #7EB58F",
"I. c #5DC285",
"U. c #58C887",
"Y. c #5CC896",
"T. c #68C68E",
"R. c #75C589",
"E. c #72CA98",
"W. c #6AD297",
"Q. c #75D39E",
"!. c #6CD6A9",
"~. c #77D4A0",
"^. c #7BD4A2",
"/. c #7ED9A3",
"(. c #81AA8E",
"). c #88B996",
"_. c #83CC8C",
"`. c #8CC19B",
"'. c #89C79D",
"]. c #8EC1A1",
"[. c #89CEA4",
"{. c #95C8A6",
"}. c #99C8AC",
"|. c #8ED2A3",
" X c #87D7A8",
".X c #8CDAAC",
"XX c #97D9AA",
"oX c #91DAAF",
"OX c #9CCAB2",
"+X c #8BDDB2",
"@X c #9BD7B3",
"#X c #92DDB1",
"$X c #A3DAB7",
"%X c #A3DDBB",
"&X c #8BE3B2",
"*X c #91E1B6",
"=X c #9FE3B8",
"-X c #A0E1B6",
";X c #A2E6BC",
":X c #A8E7BE",
">X c #A3E9BD",
",X c #A2E8C2",
"<X c #ABEDC5",
"1X c #ADEDC9",
"2X c #B0ECC6",
"3X c #B3EECD",
"4X c #B8EECE",
"5X c #ABF3C8",
"6X c #B4F4CE",
"7X c #B9EFD1",
"8X c #B5F4D1",
"9X c #B9F5D4",
"0X c #B7F9D2",
"qX c #B9F9D4",
"wX c #B3F3D8",
"eX c #BDF5D9",
"rX c #BEF9DC",
"tX c #C0F5D5",
"yX c #C1F8D7",
/* pixels */
", b V b r 4 4 5 z V V p 5 4 5 i b V b 7 5 4 5 v V V v 5 4 5 7 b V b 7 4 4 5 p V K q + .             ",
"r ~ 5.2.D x x B ~ 4.7.Q N x x Y 2.7.2.D x x B ~ 4.7.~ N x x D [ 0.4.D x x B Q 5.4.a + .             ",
"t ^ 5.:.D N N C ^ 0.0.! B N B Y <.0.,.F N x C ^ 0.0.! B x N Y ,.0.<.Y N x B ! 5.<.c X .             ",
"e ^ 5.:.D N x C ^ 5.0.~ B x N Y <.0.:.D N x C ^ 0.0.! B x N Y :.0.:.F N x B ! 5.,.c + .             ",
"t ^ 5.:.D N x C ^ 7.0.Q B x N Y <.0.:.D N x C ^ 0.0.~ B x N Y :.0.,.Y N x B ! 5.<.v + .             ",
"t ^ 5.:.D N x C ^ 7.0.Q B x N Y <.0.:.D N x C ^ 0.0.~ B x N Y :.0.,.F N x B ! 5.4.v +               ",
"t ~ 4.:.D N x C ^ 1.7.Q B N N Y :.7.2.D N x C ~ <.7.Q B x N Y ] 7.4.F N x B _ e.5.J * .             ",
"w C Q Y C N N B D Y E D N N N C Y Q Y C N N B D Y E D N N N C Y ( E C N x L l.A.A.o.= .             ",
", z N N N N N N N N N N N N N N N N N N N N N N N N N N N N N N N N N N N  .|.eXwXM.< o             ",
"; z x x x x x x N N N N N N N N N N N N N N N N N N N N N N x x x x x N N  .|.rXeXJ.< o             ",
"= 6 8 8 8 8 8 8 x N N N N N N N N N N N N N N N N N N N N x 8 8 8 8 8 8 i L R.;X;Xm.< .             ",
"o % % % % % % = 7 x N N N N N N N N N N N N N N N N N N x 7 & % % % % % = < I *.*.j @ .             ",
". . . . . . o o 5 x N N N N N N N N N N N N N N N N N N x 7 $ X X . . . . o @ # @ @ .               ",
"            . o 5 x N N N N N N N N N N N N N N N N N N N 7 $ .               .                     ",
"        X X o $ 5 x N N N N N N N B B B B B B B B N N N B 8 % + X X                                 ",
"      X % ; - 3 7 x N B Y Q Q Q Q ~ ~ ~ ~ ~ ^ ^ ^ ^ ^ ^ ^ E s & & & X                               ",
"      X ; z x z x x N D 7.0.0.0.0.0.0.0.0.0.0.0.0.0.q.0.0.0.Q z x 8 $ .                             ",
"      X 4 x N N N x m U 7.0.0.0.0.0.0.0.0.0.0.0.0.0.0.0.0.7.~ N N z $ .                             ",
"      X 4 x N N B C G Y ~ ! ^ ^ ^ ^ ^ ^ ] ] ,.7.0.0.0.0.0.7.~ B N z * .                             ",
"      X 4 x N B Q ,.4.Q B B C C C B C C C C U [ 7.0.7.0.q.7.( N N l $ .                             ",
"      + 4 x N B ^ 7.0.Q B x x x x x x x x x V ) 7.7.7.7.0.7.Y N N l $ X                             ",
"      + 4 x N B ^ 7.0.Q B N N N N N N x x x V ) 7.7.0.0.0.7.~ N N z % @ @ @ @ @ @ @ @ @ @ @ @ @ @ . ",
"      + 4 x N B ^ 7.7.Q N N N N C C C C C D Y g.x.x.h.0.7.7.9.@.@.o.j h h h h h g g g g g g g g u < ",
"      + 4 x N B ^ 7.7.Q N x N D ^ :.] ] ] ^ p.~.2X2XT.i.0.0.B.@X%X%X@XOXOXOX}.}.}.}.}.}.}.}.}.{.).$.",
"      + 4 x N C ^ 7.0.Q B x N Y 4.0.0.0.0.5.k.*XtXyX^.s.7.w.S.4XeXeXeXqXqXqXqXqXqXqXqXqXqXqX0X0X:X&.",
"      + 4 x Z C _ 0.0.Q B x B Y 2.4.7.0.0.0.z.&X8X0X/.s.7.w.A.2X8X6X2X<X<X1X1X1X1X1X1X<X<X<X<X<XXX%.",
"      + 4 x Z T l.Z.B.g.E D D g.x.C.C.C.C.Z.T.,X8X8X/.g.7.0.z.K.T.K.N.N.J.J.J.J.J.J.J.J.J.J.J.N.m.j ",
"      @ 4 x Z  .|.3X3XE.w._ 5.Y.<X3X3X1X1X1X3X8X8X8X/.g.7.7.0.w.r.' y < < < < < < < < < < < < < < @ ",
"      @ 4 x Z +.@XeXyXQ.a.;.r.!.eXyXeXeXeXeXeX8X8X8X^.g.7.7.7.7.5.W , o . . . . . . . . . . . . .   ",
"      @ 4 x Z +.#XeXqXW.f.e.t.W.1X3X3X6X6X6X6X6X3X6X^.h.i.i.0.w.5.{ w X                             ",
"      o ; z Z +.oXeX8X;XE.I.D.D.Z.Z.S.S.D.F.K.K.I.U.U.K.H.F.D.D.D.V.f +                             ",
"      o ; z Z ...X8X8X8X9X9X3XS.w.5.5.7.7.7.7.7.5.5.x.,X4X4X9X9X7X$XI O                             ",
"      o 4 z Z +.|.8X8X8X8X0X8XS.w.5.7.7.0.0.7.7.5.5.x.,X9X9X9X8X8X$XI @                             ",
"      X = 9 0 } R.>X<X1X6X8X1XI.j.g.p.p.p.p.p.p.p.p.c.,X8X6X1X:X-X`.k @                             ",
"      . o @ : y O.v.n.R.1X8X6X>X.X X^.^.^.^.^.^.^.^.*X1X6X1X(.=.%.I 2 @                             ",
"            . @ 4 n m u.;X8X8X6X6X6X6X6X6X6X8X8X8X6X8X8X6X<X=.# @ O O                               ",
"        @ @ @ @ 4 n m #.;X8X6X6X6X6X6X6X6X6X6X6X6X6X6X6X6X<X=.@ O O O O O O   . . .                 ",
"  X X @ < 1 u u f P | b.>X6X6X6X6X6X6X6X6X6X6X6X6X6X6X6X6X<X-.g d u u u 2 2 > * * + X               ",
"X & ; y *.L.).`.'.|.|.=X6X6X6X6X6X6X6X6X6X6X6X6X6X6X6X6X6X6X%X].].`.).).P.G.@.M b q + .             ",
"% 0 m S _.6XqXqXeXeXeXeX8X8X6X6X6X6X6X8X8X6X6X6X6X6X6X6X8X8X8X8X0XeXeXeXqX5Xc.;.2.a + .             ",
"& 0 Z } [.8XeXeXeXeXeXeX8X8X8X8X0X0X0X0X8X8X8X0X0X9X8X8X8X8X6X8X0XeXeXrXrX5Xc.5.2.v + .             ",
"- b G ` H.'.[. X X+X+X.X.X.X.X+X+X*X*X#XoX.X+X+X*X*X+X.X.X.X.X+X+X+X.X|.[.R.j.0.:.c + .             ",
"q Y 2._ E R R W w.a.f.y. .|  .{ a.h.d.X. .| ..w.h.f.y...| | { p.a.r.` R L T _ 0.:.c + .             ",
"e ~ 5.:.D N x A _ 0.0.! B x x G 4.w.2.H N x A _ 0.5._ B x x G 4.0.4.F N x A _ 5.,.a + .             ",
"r ~ 5.:.D N x B ^ 0.0.Q B x N Y 7.0.4.D N x B _ 0.0.! B x N Y 7.0.4.D N x V ! 5.:.c * .             ",
"w U ! Q C N N N Y ~ Q D N N N D E ~ Y C N N V U ~ Q D N N N D E ~ Y B N N B F ! ~ p + .             ",
", z B N N N N N N N N N N N N N N N N N N N N N N N N N N N N N N N N N N N N N N 5 X .             ",
"; n N N N N N N N N N N N N N N N N N N N N N N N N N N N N N N N N N N N N N N x 5 X               ",
": 9 0 n z z z z n n z z z z z n n n n z z z z n n z z z z z n n n z z z z z z l 8 4 X               ",
"o % = % & & % = = = = & & = = % % % & & % % % = % % % % = - & % % & = = = = = % % + X               "
};
