/* XPM */
static char *bffa7d0973174ae3a07e45e9b65984bd[] = {
/* columns rows colors chars-per-pixel */
"50 50 205 2 ",
"   c black",
".  c #0E0000",
"X  c #000E03",
"o  c #0F0E04",
"O  c #00030E",
"+  c #0F030E",
"@  c #030F0F",
"#  c gray6",
"$  c #110E04",
"%  c #11030E",
"&  c #120F0F",
"*  c #001104",
"=  c #0F1104",
"-  c #03140C",
";  c #0F120F",
":  c #0F190D",
">  c #12130F",
",  c #121A0D",
"<  c #110312",
"1  c #120E13",
"2  c #031611",
"3  c #0F1511",
"4  c #0F1B11",
"5  c #131313",
"6  c #131C12",
"7  c #171A16",
"8  c #1B1C1B",
"9  c #0E2C1B",
"0  c #132513",
"q  c #132C15",
"w  c #142319",
"e  c #1C231C",
"r  c #112C1D",
"t  c #1B2E1C",
"y  c #0F311F",
"u  c #143217",
"i  c #1B3117",
"p  c #14351A",
"a  c #163C19",
"s  c #183818",
"d  c #193D1A",
"f  c #1F2422",
"g  c #222723",
"h  c #232B23",
"j  c #292D2B",
"k  c #243329",
"l  c #2C322D",
"z  c #2B3A30",
"x  c #323C33",
"c  c #16431B",
"v  c #19421B",
"b  c #154D1D",
"n  c #1A4D1E",
"m  c #14521E",
"M  c #19531F",
"N  c #134223",
"B  c #154A24",
"V  c #1A4C23",
"C  c #155421",
"Z  c #195621",
"A  c #165B24",
"S  c #185D26",
"D  c #195829",
"F  c #254028",
"G  c #255B2B",
"H  c #344337",
"J  c #38453B",
"K  c #166327",
"L  c #196327",
"P  c #166529",
"I  c #19652A",
"U  c #176A2C",
"Y  c #196C2D",
"T  c #18712E",
"R  c #1A6D31",
"E  c #197432",
"W  c #1A7935",
"Q  c #1A7E3A",
"!  c #25632D",
"~  c #2B642D",
"^  c #296530",
"/  c #266C31",
"(  c #256835",
")  c #2A6B35",
"_  c #33663A",
"`  c #257333",
"'  c #2C733A",
"]  c #297538",
"[  c #237E3C",
"{  c #326543",
"}  c #367641",
"|  c #404842",
" . c #455548",
".. c #4D5B51",
"X. c #4B694F",
"o. c #447949",
"O. c #526456",
"+. c #506B58",
"@. c #5D7D69",
"#. c #1C833D",
"$. c #1C893F",
"%. c #20873F",
"&. c #208B3E",
"*. c #2A883E",
"=. c #1C8541",
"-. c #1D8942",
";. c #218541",
":. c #228A43",
">. c #258E4B",
",. c #249344",
"<. c #2C9447",
"1. c #26934B",
"2. c #2A934D",
"3. c #2A994E",
"4. c #288E50",
"5. c #2C9451",
"6. c #2B9B53",
"7. c #369C58",
"8. c #2CA057",
"9. c #3FB55F",
"0. c #3DA767",
"q. c #3FB767",
"w. c #488D52",
"e. c #4E9659",
"r. c #63836A",
"t. c #6D967B",
"y. c #699C7A",
"u. c #42AC6F",
"i. c #48AC6E",
"p. c #53A46B",
"a. c #49B06E",
"s. c #49AF75",
"d. c #4BB375",
"f. c #4FB67B",
"g. c #54B37B",
"h. c #58B87D",
"j. c #5AB97C",
"k. c #64AD7B",
"l. c #759983",
"z. c #55B680",
"x. c #5BBB83",
"c. c #71A480",
"v. c #61BC84",
"b. c #6BBD8E",
"n. c #74BE87",
"m. c #7EB28F",
"M. c #5BC386",
"N. c #5CC589",
"B. c #5FC596",
"V. c #66C28B",
"C. c #77C78E",
"Z. c #6DC895",
"A. c #75CB9B",
"S. c #69D098",
"D. c #78D29F",
"F. c #6ED3A9",
"G. c #7CD2A2",
"H. c #81A88E",
"J. c #85B793",
"K. c #89B297",
"L. c #8BBE9B",
"P. c #8DBFA1",
"I. c #83C98E",
"U. c #89C49D",
"Y. c #85CFA0",
"T. c #8BCDA4",
"R. c #95C3A5",
"E. c #97C6AB",
"W. c #98C6AA",
"Q. c #8DD4A4",
"!. c #85D5AB",
"~. c #8DD7AB",
"^. c #8CD9AE",
"/. c #94D7AC",
"(. c #9BCAB2",
"). c #8BDBB2",
"_. c #91DDB4",
"`. c #9BD8B5",
"'. c #9DDDB5",
"]. c #A2DAB9",
"[. c #8BE1B2",
"{. c #9EE1B8",
"}. c #A3E5BD",
"|. c #A4E9BE",
" X c #A3E6C2",
".X c #A9E6C7",
"XX c #A7EBC3",
"oX c #ABECC6",
"OX c #ACECC6",
"+X c #AEEDCB",
"@X c #B5ECCB",
"#X c #B2ECCE",
"$X c #A6F7C8",
"%X c #B3F2CF",
"&X c #B3EFD1",
"*X c #B8EED1",
"=X c #BBEFD8",
"-X c #B5F3D2",
";X c #BAF4D5",
":X c #B7F8D4",
">X c #B8F8D5",
",X c #B3F2D8",
"<X c #BDF5DA",
"1X c #BCF9DB",
"2X c #C1F7D6",
/* pixels */
"                                          & 7 | .. .l 5 %                                           ",
"                                          5 g K.}./.r.7 &                                           ",
"                                          5 j R.:XXXt.8 &                                           ",
"                                          5 j W.:XoXl.8 &                                           ",
"                                          5 j W.:XoXl.8 &                                           ",
"                                          5 j W.:XoXl.8 &                                           ",
"o o o o o . o # > > # # . .               5 j W.:XoXl.8 &                 . # & # # o o # # # O     ",
"3 3 2 3 3 3 3 7 7 8 7 5 & .               5 j W.:XoXl.8 &               + ; 3 3 3 3 2 2 3 3 2 - - @ ",
"r N N N N N N { t.l.r.x 5 .               5 j E.>XoXl.8 &               # 2 w N N N N N N a q q 0 3 ",
"D #.#.#.#.#.$.d.,X<X}.+.5 +               5 j E.>XoXl.8 &               o 2 B Q #.#.Q Q Q E m b a 6 ",
"C #.$.#.#.#.$.g.=X1X}.X.5 %               5 j E.>XoXl.8 &             . o 4 V #.$.-.-.#.#.E m m v 6 ",
"a T W E E E W 7.Q.Q.n.H 5 .               5 j E.>XoXl.8 &               + 7 } 9.q.6.W E W U m m v 6 ",
"q C A A A A A S / / G e > .               5 j (.>XOXl.8 &               < e k.$X$XC.I Z C C m m v 6 ",
"0 b b b b b b C m m a 6 $ .       . . .   5 l (.>XOXl.8 &     . . + . . 1 f m.1X1XT.G b b m m m v 6 ",
"0 b C C C C C C m m a 6 $ .   X o # # o @ 5 l (.:XOXt.8 > - 3 1 5 5 5 . 1 g J.-X<XT.! C C C m m c 6 ",
"p P U P P P P A m m a 6 o . X - : 4 6 4 4 6 z (.;XOXy.e w w k J J H 8 1 < g L.-X;X/.` I I A m m c 6 ",
"B #.#.#.#.#.Q Y m b a 6 o   * 6 s v v v c c _ '.;X%Xb.( R ` p.].].L.J 1 1 h L.-X;X).,.#.#.Y m m v 6 ",
"C #.=.=.=.=.=.R m b a 6 =   - 0 b m m m m m ' ].<X*XZ.,.#.-.j.*X&X'. .5 1 h P.:X:X).3.-.-.E C m v 6 ",
"B Q #.Q Q Q Q U m b a , ; o 3 0 b C C m m C ] `.@XOXx.-.=.-.j.-X-X}.O.5 5 j R.-X-X).1.#.#.R C m v 6 ",
"p P U U U U P A m b a 0 : - , d Y E E R R R [ i.z.f.7.=.=.:.j.-X-XOXH.O.O.@.].-X%X!.] I I S m m v 6 ",
"0 b m m m C C m m m b s p p a R =.=.=.=.=.=.=.=.-.:.;.=.=.:.j.@X-X%XOXXX.XoX%X:X-X!.! n m C m m v 6 ",
"0 b b b b b b m m m m b b m C W -.=.=.=.=.=.=.=.=.=.=.=.;.:.v.@X*X&X#X%X%X%X%X-X-X!.^ n b m m m c 6 ",
"q C A C A A C C m m m m m m C E =.=.=.=.=.=.=.>.1.1.2.2.2.2.v. X X X+X-X%X%X%X%X-X^./ Z A C m m c 6 ",
"c E E E E E E L m m m m m m C E =.=.=.#.=.=.5.V.G.G.G.G.G.G.N.0.0.u._.-X%X%X%X%X-X_.*.W E P m m c 6 ",
"C =.=.=.=.=.#.Y m m m m m m C E =.=.=.=.=.=.0.OX2X:X-X-X-X+XN.&.&.1.G.%X%X%X%X%X-X_.3.-.=.T C m v 6 ",
"C #.=.#.#.#.#.Y m m m m m m C E =.=.=.=.#.#.0.OX<X-X-X-X-X#XM.-.#.>.G.%X%X%X%X%X-X_.3.-.=.R C m v 6 ",
"N E W E E E E I m m m m m m C E =.=.#.Q E E 5.D._.[. X-X-X+Xx.;.#.>.G.%X%X%X%X%X-X).:.E W I C m v 6 ",
"u C A A A A A C m m m m m m C E =.=.#.I C C U :.6.8.V.#X;X+Xx.;.=.>.G.%X%X%X%X%X-X).` Z A C m m v 6 ",
"0 b b b b b b m m m m m m m C E =.-.Q S n b A W #.-.g.+X;X#Xj.-.=.>.G.%X%X%X%X%X-X^.^ b b m m m v 6 ",
"q b m m C C m m m m m m m m C E =.-.Q A b b A Q =.=.d.+X;X#Xj.#.=.>.G.%X%X%X%X-X-X^.^ m m C m m c 6 ",
"p K P P K P K A m m m m m m C E =.-.W A b b A Q =.=.s.+X<X+Xg.#.#.>.G.%X%X%X%X-X-X_.] I I A m m c 6 ",
"B Q #.Q Q Q Q U m m m m m m C E =.-.W A b C A Q =.=.s.+X<X#Xg.%.#.>.G.%X%X%X%X%X-X_.<.#.#.U C m v 6 ",
"C #.-.=.=.=.#.Y m m m m m m C E =.-.W A b C A Q =.#.s.#X<X#Xg.%.#.2.!.%X%X%X%X%X-X_.6.-.-.E C m v 6 ",
"B Q #.#.#.#.Q U m m m m m m C E =.-.W A b C A W #.Q u..X-XoXd.;.;.5.^.%X%X%X%X%X-X).1.#.#.R C m v 6 ",
"s P U U U U I A m m m m m m C E =.-.W A b C C P U U 4.B.F.S.j.g.g.V.|.%X%X%X%X%X-X).[ I I S m m v 6 ",
"q b m C C C C C m m m m m m C E -.-.W A b m C C C C P #.,.,.j.#X&X+X%X-X%X%X%X%X-X^./ n C C m m v 6 ",
"0 b m b b b m m m m m m m m C E -.-.W S b m m b b b K W #.&.v.;X:X-X-X-X-X%X%X:X:X~.^ b b m m m c 6 ",
"q C A C C A A C m m m m m m C U #.#.E A C C C C C C U :.1.3.A.-X-X%XOX}.}.|.%X:X-X~./ C C C m m c 6 ",
"a E E E E E E L m m m m m m m A L I I Y E E E E T E 2.Z.A.S.}.-X-X+Xn.o.} w.{.;X;X^.*.E E K m m c 6 ",
"C #.=.=.#.=.#.Y m m m m m m m m m n S Q =.=.=.=.=.-.a.#X<X-X:X:X-XXXe.n n ^ Q.<X;X).2.-.=.E C m v 6 ",
"C #.=.#.#.#.#.U m m m b b b b b b n A Q =.=.=.#.#.-.g.@X<X;X-X-X&X}.w.v v G T.<X;X).1.-.-.E C m v 6 ",
"c E W W W E E I m m b s u q q a b m C Y E E E E W W 7.T./.`./.~.Q.C._ 0 0 F U.;X;X!.;.W W I C m v 6 ",
"u A A A A A A C m b a 6 5 5 3 0 b m m C A A A A A A L ) ' ' ) ) ) ~ e 5 5 h L.;X-X!./ Z A C m m v 6 ",
"0 b m b b b b m m b s 6 > $ 5 0 b m m m m m m m m M M M M M M M n d 7 > 5 h J.-X-XT.! b b m m m v 6 ",
"0 b C C m m m m m b s 6 o . ; 0 v b b b b b b b b b b b b b b b v i 5 . 5 e c.#X&XU.G m m C m m v 6 ",
"u K P K K K K A m b s , o . = 6 0 0 0 0 0 0 0 0 0 0 0 0 0 0 0 0 0 6 5 . 5 7 o.I.Y.k.I K K A m m v 6 ",
"B Q #.Q #.#.Q Y m b s , o . . ; ; ; ; ; 3 3 3 3 3 3 3 5 5 5 > 5 > ; $ . + 5 t G ~ ` W Q #.T C m v 6 ",
"C #.$.#.$.$.#.T m b s , o       + + + + + + + + + + + + + + + + + .       - 0 n M L #.$.$.E m m v 6 ",
"B R E E E E R A c c i , o                                                 - 6 d d V Y E E I c v s , ",
"w r r y y p r w w w 7 5 o                                                 X - 6 6 0 9 9 r r w w 6 5 "
};
