/* XPM */
static char *_645625401b543eda1e4c202f6d8c9cc[] = {
/* columns rows colors chars-per-pixel */
"51 50 134 2 ",
"   c #767875",
".  c #7A7B76",
"X  c #72757A",
"o  c #7E7E7D",
"O  c #817E7B",
"+  c #7E807F",
"@  c #82817E",
"#  c #7D7E82",
"$  c #817F84",
"%  c #7F8185",
"&  c #848484",
"*  c #898686",
"=  c #878884",
"-  c #8A8986",
";  c #878789",
":  c #8A8788",
">  c #87888C",
",  c #8B8B8B",
"<  c #918D8C",
"1  c #8F918F",
"2  c #94908F",
"3  c #8E8D91",
"4  c #908E92",
"5  c #8D9195",
"6  c #949495",
"7  c #989493",
"8  c #979698",
"9  c #9C9C9D",
"0  c #A29E9D",
"q  c #A0A09E",
"w  c #9F9FA1",
"e  c #A4A3A4",
"r  c #A2A7AB",
"t  c #ABABAB",
"y  c #AAAFB3",
"u  c #B1AFB0",
"i  c #B5B5B4",
"p  c #B7B6BC",
"a  c #B9B7BC",
"s  c #BBBBBB",
"d  c #BCBDC1",
"f  c #BEC4C2",
"g  c #C3C3C4",
"h  c #C6C8C7",
"j  c #C9CAC6",
"k  c #C6C6CA",
"l  c #C7CACC",
"z  c #CACBCB",
"x  c #D0CECF",
"c  c #CBD0CC",
"v  c #D1D1CF",
"b  c #CBCDD3",
"n  c #CECAD8",
"m  c #CDD3D3",
"M  c #D6D6D6",
"N  c #D8D6D7",
"B  c #D6D8D6",
"V  c #D8D8D6",
"C  c #D6D6D9",
"Z  c #D8D7DB",
"A  c #D6D9D9",
"S  c #DDDDDE",
"D  c #DADADA",
"F  c #E0DEDF",
"G  c #E0DEDF",
"H  c #E1E1DF",
"J  c #E0E2DF",
"K  c #D8D5E0",
"L  c #D5D8E1",
"P  c #D9D9E1",
"I  c #DAD9E1",
"U  c #DCD9E0",
"Y  c #DDDBE0",
"T  c #DFDDE0",
"R  c #DDDCE0",
"E  c #E0DEE1",
"W  c #E1DFE2",
"Q  c #E1DFE0",
"!  c #DFE3E6",
"~  c #E1E1E1",
"^  c gray88",
"/  c #E1E3E0",
"(  c #E0E2E1",
")  c #E3E1E2",
"_  c #E1E3E2",
"`  c #E2E2E2",
"'  c #E4E2E3",
"]  c #E2E4E3",
"[  c #E4E4E2",
"{  c #E3E1E6",
"}  c #E4E4E4",
"|  c #E2E2E2",
" . c #EBE9EA",
".. c #EAE8EB",
"X. c #EDEBEE",
"o. c #ECECEC",
"O. c #ECECED",
"+. c #EEEDF1",
"@. c gray96",
"#. c gray97",
"$. c #F2F2F2",
"%. c #F8F6F7",
"&. c #F8F8F6",
"*. c #F9F9F7",
"=. c #FAF9F7",
"-. c #F7F9F8",
";. c #F9F9F9",
":. c #FAF8F9",
">. c #F8FAF9",
",. c #FAFAF8",
"<. c #FBFAF8",
"1. c #FBFBF9",
"2. c #FBF9FA",
"3. c #F9FBFA",
"4. c #FCFBF9",
"5. c #FCFAFB",
"6. c #FCFCFA",
"7. c #FDFCFA",
"8. c #FDFDFB",
"9. c #FEFDFB",
"0. c #FBF9FC",
"q. c #FDFBFC",
"w. c gray99",
"e. c #FDFDFD",
"r. c #FEFCFD",
"t. c #FCFEFD",
"y. c #FEFEFC",
"u. c #FFFEFC",
"i. c #FFFFFD",
"p. c #FFFDFE",
"a. c #FEFEFE",
"s. c #FFFEFF",
"d. c white",
"f. c #FEFEFE",
/* pixels */
"s b b b n n n n n b b b b b b m z c b b b z z z l l b b l z b b b z z z z z z m z z z l b b z z l m f ",
"z S C Z Z Z K Z Z C Z C C C C C B B C C C A D M A m Z L C M C C A A A A A A A A C C A A D C N B N A k ",
"z S C C Z Z Z Z Z Z Z C C A A B M B S Z N M N s t t k I Z C S C A A A B N N B A B A B B N N N M u t 0 ",
"k D C C Z Z Z C C N N N M N N N B M C C D D N w @ ; p I Z C C M N N B N N N N N M A M M N A S z 2 , O ",
"h B N N C C C Z E ~ ~ J ~ ] ] J ] S { S g g g 9 * * a S Z C C A S ! ~ ] ] ] ] ] ! ~ S } D g h s 2 < & ",
"j B N N C Z Z T %.:.:.:.*.:.3.:.*.:.0. .9 3 4 , , = s S C C Z S $.@.-.:.:.3.3.:.r.-.@.r.D 6 , , , , & ",
"j N N N C C Z E %.5.9.9.9.9.9.3.:.:.:.X.6 , > , = @ s Y Z C M S @.:.r.r.r.r.r.r.r.:.r.r.' , * , > 3 % ",
"j B N D D C C S %.q.r.r.9.9.r.r.r.q.r. .8 , > , , = s S Z Z M S *.r.r.r.r.r.r.r.r.r.r.r.' , , , > 5 # ",
"k B N N C C C S :.r.9.9.r.r.r.r.r.r.r.X.8 , > > * = s S C C M S :.r.r.r.r.r.r.r.r.r.r.r.~ , , > > 3 $ ",
"z B N N C C C S :.r.r.9.r.r.r.r.r.r.r.X.8 , > > * = s S C C M S :.r.r.r.r.r.r.r.r.r.r.r.~ , , > > 3 & ",
"k D C C Z Z C S :.r.r.r.r.r.r.r.r.r.r.X.8 , > , - = s S N N M S :.r.r.r.r.r.r.r.r.r.r.r.~ , , , > 3 & ",
"z D C C Z Z C S :.r.r.r.r.r.r.r.r.r.r.+.8 , > , , * s S N N M D :.r.r.r.r.r.r.r.r.r.r.r.~ , , , , , & ",
"z D D C D D C S :.r.r.r.r.r.r.r.9.r.r.+.8 , , , - = s S N N N D :.r.r.r.r.r.r.r.r.r.r.r.~ , , , , , @ ",
"k D C C D A C D :.r.r.r.r.r.r.r.9.r.r.+.8 = , , , = d S N N N S :.r.r.r.r.r.r.r.r.r.r.r.~ , , , , , & ",
"k V N N A C N D :.r.r.r.r.r.r.r.9.r.r.+.8 * , , , = d S N N N S :.r.r.r.r.r.r.r.r.r.r.r.~ , , , , , & ",
"k D N N C C N S 3.r.r.r.r.r.r.r.r.r.r.+.8 = , , , = s S N N N S :.r.r.r.r.r.r.r.r.r.r.r.~ , , , , 3 $ ",
"k S C N C C N S 0.r.r.r.r.r.r.r.r.r.r.X.8 , , , , = d D N N N D :.r.r.r.r.r.r.r.r.r.r.r.~ , , , , , & ",
"z C D C D C M T :.0.r.r.r.r.r.r.r.:.r.$.6 , , , , = s D N D N D :.r.r.r.r.r.r.3.r.3.:.r.~ , , , , , o ",
"k A D N N N N S :.:.r.r.r.r.:.:.r.3.r.X.8 = , , , = s D N N D D @.:.:.r.r.r.r.3.r.r.:.r.D , , , , , & ",
"k A N N D N D M s s s i i i i i i i i t , , , , , , s D N D D M s s s i i i i i i i i i t , , , , , & ",
"k D N M z z z g , , , = = = = = , , = = , , , , , , s D N k z g , , = = = & & = ; ; = = = , , , , , & ",
"h N M e 6 8 8 , , , , , , , , , , , , , , , , , , = s D h 8 6 , , , , , , , , , , , , , , , , , ; , & ",
"k D N 9 & = , = = , , , , , , , , , , , , , , = , , s D g , = , , , , , , , ; ; , , , , , , , , , , & ",
"j N D g s s s s s s s s s s s s s s s s s s i s s i z D M i s s s s s s s s s s s s i s s i s i i s t ",
"k N D D D D D D D D D D D D D D N D N D D N N D D D N D N N A D D D D D D D D D B S V D D D A N D S k ",
"k N N N N D N D N N N N N N N N N B N M N N N N M N N D B B M N N N N N N N N N B B M V N M M D N S g ",
"k N N N N N N N N N N N N N N N N N D N N N M M N N N M N D N D N N N N N N N N N N N N N D N N N ~ g ",
"k D N N N D N D N N N N N N N N N N N N M N D D N M D D N D N N N N N N N N N N N N N N M D N N N D g ",
"k D N N N D N N A N N N N N N N N D N N D N m t 9 9 h D N N D A N N N N N N N N N N N N N N N M t e 8 ",
"k D D N N V N N A A A N N N N N N N D M N N M q & & s S N N B N N N N N N N N N A D N N N D D k 6 , & ",
"z D D D C A C A N N C C N N N N N M N A N D N 9 , = s D N N B N N N N N N N N N M N N N N N S M 6 3 & ",
"z D D C C A C D  ...o.o.o.o.o.X.X. .o.} i t t 6 , , f D N N N B  . . . .o.o.o.X.X. . .$.D i t t 4 4 $ ",
"k D D N N N N S :.r.r.r.r.r.r.r.r.r.r.X.6 = , , , = s D N N N D :.r.r.r.r.r.r.r.r.r.r.r.S , , ; , , & ",
"z D D N N N N S :.r.r.r.r.r.r.r.r.r.r.X.8 * , , , = s D N N N D :.r.r.r.r.r.r.r.r.r.r.r.! , , , , , & ",
"z D D N N N N S :.r.r.r.r.r.r.r.r.r.r.X.8 , , , , = s D N N N D :.r.r.r.r.r.r.r.r.r.r.r.E , , , , , & ",
"z D N V N N N S :.r.r.r.r.r.r.r.r.r.r.X.8 , , , , = s D N N N D :.r.r.r.r.r.r.r.r.r.r.r.E , , , , , & ",
"z D N N N N N S :.r.r.r.r.r.r.r.r.r.r.X.8 , , , , = s D N N N D :.r.r.r.r.r.r.r.r.r.r.r.F , , , , , & ",
"z A N N N N N S :.r.r.r.r.r.r.r.r.r.r.X.8 , , , , = s D N N N D :.r.r.r.r.r.r.r.r.r.r.r.F , , , , , & ",
"z D N D N N N S :.r.r.r.r.r.r.r.r.r.r.X.8 , , , , = s D N N N D 0.r.r.r.r.r.r.r.r.r.r.r.S , , , , , & ",
"z D N D N N N S :.r.r.r.r.r.r.r.r.r.r.X.8 = , , , = s D N N N D 0.r.r.r.r.r.r.r.r.r.r.r.S , , , , , & ",
"z D N N N D N D :.r.r.r.r.r.r.r.r.r.r.+.8 ; , , , = s D N D N D :.r.r.r.r.r.r.r.r.r.r.r.S 1 * , , 1 & ",
"z N N D D N N S :.r.r.r.r.r.r.r.r.r.r.X.8 , , , , = s D N N N D :.r.r.r.r.r.r.r.r.r.w.r.S , * , , , & ",
"z N N D D N N S :.r.r.r.r.r.r.r.r.r.r.X.8 ; , , , = s D N N N D r.r.r.r.r.r.r.r.r.r.r.r.~ 1 , , , , & ",
"k N N N N D N N z z z z z z k z k k k s 6 > , , , = s D N N N N z k k z k k k k z z z z i , , , , , & ",
"z D D N N D N z , & = = = = & = = & = ; ; > , , , = s S D D N k , = = ; * = = = * = = = , * , , , , & ",
"k N N D D D N x 6 , , , , , , , , 4 , , 3 > , , , = s D N N D z 6 * , , , , , , , , , , , , , , , , & ",
"z D D D N D Z M < * , , , , , , , , > , 3 3 , , , * s S Z N S M 7 - , , , < , , , , < , , , , , , , & ",
"k D N k s s s i , , 4 , , , , , , , , 4 , 3 , > > = s S z s s i 6 * , , * , , , , , * , , , , , , , & ",
"v [ V q * - * - < < < , , , , , , , , , , , , 3 3 > d ! k 5 3 > , , < < < < < < , , , , , , , , , 1 @ ",
"i j s , . @ @ @ O O @ @ O o + + o + # # # o # # # X r l y # % % o o o o O O O O O o o @ & & & & + ;   "
};
